<svg xmlns="http://www.w3.org/2000/svg" xmlns:xlink="http://www.w3.org/1999/xlink" version="1.1" id="Layer_1" x="0px" y="0px" width="100%px" viewBox="0 0 1745 650" enable-background="new 0 0 1745 650" xml:space="preserve" style="background-color:transparent;" height="100px" transform="rotate(0) scale(1, 1)">
<path fill="none" opacity="1.000000" stroke="none" d=" M1314.000000,651.000000   C876.000000,651.000000 438.500000,651.000000 1.000000,651.000000   C1.000000,434.333344 1.000000,217.666672 1.000000,1.000000   C582.666687,1.000000 1164.333374,1.000000 1746.000000,1.000000   C1746.000000,217.666672 1746.000000,434.333344 1746.000000,651.000000   C1602.166626,651.000000 1458.333374,651.000000 1314.000000,651.000000  M1036.000000,290.500000   C1036.000000,215.420212 1036.000000,140.340424 1036.000000,65.288849   C1012.039124,65.288849 988.641296,65.288849 964.878479,65.288849   C964.878479,75.316689 964.878479,85.061333 964.878479,96.021461   C962.724670,94.434059 961.226501,93.616959 960.094299,92.445984   C955.009338,87.187065 950.630188,81.042091 944.897705,76.650993   C927.421936,63.264233 907.157776,56.854946 885.313110,56.164783   C875.675842,55.860310 865.799255,56.393803 856.349792,58.206818   C832.454163,62.791569 811.467834,73.781006 793.981567,90.689423   C780.572815,103.655174 770.511047,119.051361 762.827881,136.199234   C754.726440,154.280548 750.690918,173.139526 750.167969,192.707565   C749.888062,203.184845 751.166443,213.721985 752.040649,224.207169   C753.097534,236.883957 756.994141,248.906998 762.195557,260.368927   C772.446411,282.957794 786.564392,302.632477 806.899780,317.468231   C825.223511,330.836365 845.595642,339.111420 868.106628,340.739685   C879.498230,341.563660 891.206848,340.493774 902.560303,338.832611   C925.226990,335.516174 944.123840,324.912994 958.677612,306.924866   C960.106201,305.159149 962.298401,304.011261 964.136230,302.576630   C964.725525,302.924500 965.314880,303.272369 965.904236,303.620270   C964.936279,317.416229 964.823547,331.339874 962.787720,344.976440   C960.132080,362.764099 951.317505,378.069336 936.686157,388.416595   C916.635132,402.596649 893.999207,405.626129 870.313477,398.660553   C859.208923,395.394897 849.242737,389.567841 841.778992,380.904999   C835.549072,373.674225 831.070862,364.934174 825.674194,356.643372   C825.561462,356.669708 824.456726,356.781769 823.467285,357.180267   C802.145935,365.767090 780.853271,374.425262 759.505127,382.944672   C757.053528,383.923065 756.732361,384.877716 757.642578,387.315582   C766.125244,410.037048 781.719177,427.122742 801.015076,440.898010   C822.499878,456.235992 846.883301,464.966064 873.081604,466.697662   C890.758362,467.866089 908.612000,467.842743 926.339905,464.188721   C950.174194,459.276031 971.476685,449.484161 989.732971,433.606689   C1007.554321,418.107300 1019.369385,398.391022 1027.003540,376.145142   C1033.188843,358.121002 1035.449707,339.424591 1035.954834,320.490936   C1036.212402,310.833771 1036.000000,301.164032 1036.000000,290.500000  M390.000000,296.500000   C390.000000,310.259857 390.000000,324.019714 390.000000,337.693176   C414.995056,337.693176 439.394012,337.693176 464.000000,337.693176   C464.000000,335.573547 464.000000,333.759338 464.000000,331.945099   C464.000000,276.123230 464.024109,220.301346 463.956818,164.479568   C463.951080,159.725967 463.173981,154.977844 463.034912,150.218979   C462.627289,136.266785 459.222168,122.943253 453.890747,110.209076   C446.276703,92.022896 434.483826,77.329659 416.652100,67.899841   C404.421967,61.432274 391.563019,58.171421 377.791565,56.788506   C362.053711,55.208118 346.763275,56.395996 331.738220,60.757584   C306.772705,68.004745 288.274323,84.066086 273.161438,104.998466   C267.503448,93.794350 260.416779,84.010483 250.645340,75.856422   C234.509567,62.391434 215.846695,56.839294 195.481140,56.154457   C187.346283,55.880905 179.010727,56.592087 171.013687,58.135529   C146.736038,62.821148 126.641716,74.662880 111.671532,94.694046   C109.791283,97.209969 107.384811,99.332619 105.222153,101.637482   C104.740150,101.340088 104.258148,101.042702 103.776146,100.745308   C103.776146,88.850250 103.776146,76.955200 103.776146,65.204521   C80.641975,65.204521 58.027390,65.204521 35.207390,65.204521   C35.207390,156.131027 35.207390,246.853027 35.207390,337.787506   C59.463840,337.787506 83.528862,337.787506 107.999985,337.787506   C107.999985,336.315643 107.991905,335.018646 108.001144,333.721771   C108.333099,287.143341 108.444794,240.561676 109.121613,193.988220   C109.355164,177.916931 114.117966,162.759811 122.574905,149.000397   C128.320358,139.652573 136.221344,132.577896 146.428284,128.176987   C155.829193,124.123604 165.659714,123.736946 175.502701,125.122658   C184.279510,126.358276 192.491638,129.935272 198.605957,136.380524   C208.470016,146.778473 211.852097,160.049606 211.910477,173.937454   C212.132538,226.758972 212.000000,279.582001 212.000000,332.404480   C212.000000,334.176453 212.000000,335.948425 212.000000,337.723083   C236.934738,337.723083 261.333344,337.723083 286.000000,337.723083   C286.000000,335.642395 286.000000,333.836029 286.000000,332.029663   C286.000000,291.038086 286.150574,250.045700 285.925140,209.055359   C285.836243,192.892120 287.891449,177.228424 294.036743,162.233612   C298.432068,151.508911 304.730988,142.111160 314.067078,134.996948   C325.890015,125.987747 339.337921,123.177734 353.834869,125.043571   C365.922424,126.599312 375.622620,132.254700 381.975464,142.917221   C387.490173,152.172928 389.951721,162.332581 389.970734,173.025238   C390.043213,213.850052 390.000000,254.675064 390.000000,296.500000  M588.058533,277.569916   C560.024048,268.040741 543.170227,241.224533 542.488708,219.000000   C544.309387,219.000000 546.124512,219.000000 547.939697,219.000000   C612.429382,219.000000 676.919128,218.951874 741.408447,219.102890   C745.946777,219.113510 747.129395,217.425888 747.039124,213.393234   C746.893555,206.888962 746.828796,200.373611 747.035645,193.872665   C747.471130,180.183487 745.334412,166.824265 741.963806,153.651993   C734.884277,125.985512 721.332642,102.331329 698.766357,84.216797   C674.878418,65.041328 647.052734,57.118763 617.100708,56.219337   C605.556030,55.872665 593.832275,57.330235 582.373596,59.132542   C557.581726,63.032021 536.247192,74.666725 517.612915,91.064957   C502.656799,104.226463 491.169250,120.032997 482.743744,138.324783   C474.676849,155.837921 470.081512,174.120422 469.294403,193.076950   C468.753693,206.099060 470.228119,219.348160 472.134888,232.299545   C476.453339,261.631714 490.221558,286.548615 511.083954,307.219543   C519.070435,315.132721 528.759583,321.532776 538.314758,327.613739   C556.949951,339.473328 577.848633,345.495728 599.678162,346.720734   C614.097046,347.529877 628.707764,346.146301 643.156494,344.877716   C660.171021,343.383911 675.704956,336.782806 690.200928,328.129333   C704.015320,319.882782 716.296875,309.521362 726.426941,296.949646   C732.575989,289.318420 737.979858,281.086700 744.115845,272.573547   C722.788391,261.908844 702.454285,251.740860 683.336548,242.181107   C675.784668,250.428619 669.143250,258.347595 661.798767,265.549713   C650.210022,276.913910 635.391663,281.470703 619.723145,281.715332   C609.431152,281.875977 599.096436,279.308380 588.058533,277.569916  M1124.699463,127.034866   C1140.831055,118.274544 1157.758301,114.019196 1176.268677,116.922691   C1189.659912,119.023224 1201.639893,124.194672 1210.982178,133.767471   C1221.308716,144.348770 1225.994873,157.465622 1223.611328,172.583420   C1222.409058,172.211517 1221.165039,171.855682 1219.939941,171.443375   C1204.244263,166.160934 1188.210449,161.824265 1171.677002,161.209610   C1154.589844,160.574371 1137.419922,160.066452 1120.419312,163.894836   C1097.033691,169.161118 1076.524170,178.944107 1060.758789,197.654358   C1042.892456,218.858246 1038.105957,243.516373 1042.235474,269.975983   C1045.352417,289.946777 1054.791138,307.028534 1070.143066,320.752380   C1087.458130,336.231323 1107.884033,344.679077 1130.586426,346.696472   C1142.428467,347.748810 1154.678955,346.553986 1166.514526,344.810242   C1187.257568,341.754242 1202.748779,329.253967 1216.318848,314.142090   C1219.154907,310.983826 1220.376465,310.052277 1224.263184,310.731628   C1224.263184,320.063904 1224.263184,329.475708 1224.263184,338.646576   C1248.757935,338.646576 1272.823242,338.646576 1297.000000,338.646576   C1297.000000,284.980804 1296.976196,231.668381 1297.015137,178.356003   C1297.026123,163.247696 1295.826294,148.257751 1291.943115,133.642181   C1284.938965,107.279716 1269.885254,86.889305 1245.918457,73.449150   C1223.993042,61.153656 1199.885742,57.391430 1175.284302,56.073128   C1159.319946,55.217667 1143.423340,56.646618 1127.802368,60.066902   C1114.553345,62.967880 1101.604980,67.119308 1090.140869,74.523933   C1080.359741,80.841660 1070.797363,87.611816 1061.804443,94.993530   C1056.347412,99.472855 1052.156738,105.494843 1047.044434,111.218544   C1065.653687,123.950417 1083.456299,136.130356 1100.012085,147.457352   C1108.562134,140.337601 1116.310791,133.885162 1124.699463,127.034866  M1678.495605,475.000000   C1683.255981,475.000000 1688.016357,475.000000 1692.682861,475.000000   C1692.682861,416.655151 1692.682861,358.945099 1692.682861,301.317291   C1634.655029,301.317291 1576.945068,301.317291 1519.317383,301.317291   C1519.317383,359.345184 1519.317383,417.055237 1519.317383,475.000000   C1572.255127,475.000000 1624.875854,475.000000 1678.495605,475.000000  M1310.542969,66.000000   C1307.771973,66.000000 1305.000977,66.000000 1302.280151,66.000000   C1302.280151,119.626640 1302.280151,172.682083 1302.280151,225.708923   C1312.630005,225.708923 1322.697266,225.708923 1332.041016,225.708923   C1332.041016,205.331589 1332.041016,185.252533 1332.041016,165.402039   C1347.012817,183.201294 1366.150269,185.310349 1386.865479,176.443954   C1407.386719,167.660507 1416.625122,150.164169 1419.750000,128.685898   C1420.148560,128.831100 1420.547241,128.976288 1420.945801,129.121475   C1420.945801,144.978226 1420.945801,160.834976 1420.945801,176.493774   C1432.060547,177.013504 1442.604248,177.675644 1453.158203,177.949371   C1462.481934,178.191193 1471.817749,177.929794 1481.146484,178.043777   C1483.860718,178.076935 1485.567871,177.381226 1487.106201,174.855759   C1492.980591,165.211044 1499.188599,155.769379 1505.448853,145.975266   C1506.347168,147.001541 1507.277588,147.862350 1507.968262,148.885056   C1513.934570,157.720245 1519.777954,166.640320 1525.880981,175.379410   C1526.782471,176.670502 1528.831665,177.841751 1530.382690,177.884689   C1539.039673,178.124481 1547.706787,177.999969 1556.370361,178.000000   C1558.563965,178.000000 1560.757446,178.000000 1563.671631,178.000000   C1550.725098,159.254013 1538.488159,141.400116 1526.046265,123.690323   C1524.475952,121.455193 1524.427002,120.067009 1525.964722,117.981949   C1531.635254,110.292435 1537.192993,102.518967 1542.741943,94.740555   C1549.461914,85.320297 1556.129761,75.862915 1563.118774,66.000107   C1550.905029,66.000107 1539.423828,65.951393 1527.944336,66.068199   C1526.660522,66.081253 1524.879150,66.670624 1524.201294,67.617455   C1522.049316,70.623817 1520.342651,73.945488 1518.405640,77.109673   C1514.481323,83.520332 1510.518677,89.907570 1506.193726,96.917511   C1501.131592,89.157501 1496.216431,82.376205 1492.128296,75.128456   C1488.566040,68.813148 1484.674072,65.099968 1476.549438,65.761368   C1467.715820,66.480492 1458.732788,65.195999 1449.810547,65.040176   C1440.234985,64.872955 1430.654175,65.002426 1421.000000,65.002426   C1421.000000,73.890152 1421.000000,82.050842 1421.000000,90.211525   C1421.000000,98.344215 1421.000000,106.476906 1421.000000,114.609596   C1419.677490,113.724228 1419.223633,112.644600 1419.029297,111.520149   C1418.778809,110.069122 1418.932861,108.531944 1418.572388,107.118637   C1415.041016,93.270645 1408.623901,81.284546 1396.970337,72.383095   C1383.773315,62.302826 1363.018066,58.074162 1347.462769,66.089066   C1341.488770,69.167244 1336.310791,73.790314 1330.846191,77.655602   C1330.846191,74.377190 1330.846191,70.308342 1330.846191,66.000000   C1324.144531,66.000000 1317.839355,66.000000 1310.542969,66.000000  M1475.489258,367.000000   C1479.585327,367.000000 1483.681519,367.000000 1487.685303,367.000000   C1487.685303,323.326569 1487.685303,280.283051 1487.685303,237.314926   C1444.326172,237.314926 1401.282593,237.314926 1358.315186,237.314926   C1358.315186,280.674133 1358.315186,323.717651 1358.315186,367.000000   C1397.250366,367.000000 1435.871094,367.000000 1475.489258,367.000000  M1694.000000,103.500000   C1694.000000,74.076057 1694.000000,44.652119 1694.000000,15.308530   C1683.336548,15.308530 1673.267822,15.308530 1662.790161,15.308530   C1662.790161,45.905792 1662.790161,76.196297 1662.790161,106.486794   C1661.680054,105.806145 1661.202026,105.012207 1661.022339,104.155731   C1658.244507,90.902908 1651.922729,79.788033 1640.683228,72.019196   C1627.958252,63.223652 1613.872925,60.591187 1598.500366,62.877380   C1583.481079,65.111061 1571.525757,71.858170 1561.850830,83.532234   C1545.626465,103.109009 1544.339600,135.590347 1558.918579,156.319809   C1574.593750,178.608276 1598.552246,184.812180 1623.947632,179.426285   C1640.688354,175.875885 1652.605835,165.306976 1661.369751,150.250397   C1656.369507,147.745224 1651.620483,145.361343 1646.867188,142.986069   C1643.543701,141.325333 1639.909058,137.964859 1636.970459,138.488571   C1633.834351,139.047440 1631.271851,143.200623 1628.600952,145.924011   C1619.439697,155.265167 1608.366821,155.700897 1597.028564,151.837021   C1586.581177,148.276749 1581.166870,139.998978 1579.079468,128.804871   C1607.259888,128.804871 1634.981934,128.804871 1663.129150,128.804871   C1663.129150,144.913162 1663.129150,161.328445 1663.129150,177.708145   C1673.629272,177.708145 1683.697632,177.708145 1694.000000,177.708145   C1694.000000,153.111374 1694.000000,128.805695 1694.000000,103.500000  M1606.000000,189.669266   C1606.803467,185.713730 1604.235596,185.971039 1601.589966,185.975159   C1575.280396,186.016205 1548.970947,185.998047 1522.661377,186.007233   C1521.548584,186.007629 1520.435669,186.111862 1519.266113,186.170563   C1519.266113,215.238876 1519.266113,243.950623 1519.266113,272.731079   C1548.244629,272.731079 1576.956299,272.731079 1606.000000,272.731079   C1606.000000,245.187744 1606.000000,217.911987 1606.000000,189.669266  M326.182037,529.579407   C310.832550,513.996338 284.418854,517.765625 272.063324,536.110596   C261.740448,551.437561 261.273651,567.568054 269.552460,584.155396   C278.586761,602.256592 299.173218,608.309143 316.646606,601.575500   C320.382751,600.135681 323.440948,596.936768 326.883911,594.496826   C328.316956,612.203918 320.187531,618.222107 312.162720,620.767090   C302.081573,623.964233 292.291534,618.626038 286.919159,607.787476   C279.943054,610.630005 272.947418,613.480591 265.757935,616.410156   C268.463165,622.815125 271.858673,627.997314 277.271271,632.152161   C287.253784,639.815125 298.478149,641.600098 310.556396,641.042114   C320.214600,640.595886 328.608490,637.248962 335.682983,630.769470   C345.196472,622.056091 348.685852,610.621826 348.907288,598.247559   C349.256042,578.760132 349.000000,559.261841 349.000000,539.768188   C349.000000,534.315308 349.000000,528.862366 349.000000,523.212402   C341.464783,523.212402 334.378906,523.212402 326.911041,523.212402   C326.911041,525.390625 326.911041,527.359314 326.182037,529.579407  M139.000000,598.390503   C139.000000,600.161377 139.000000,601.932190 139.000000,603.688110   C146.632751,603.688110 153.696899,603.688110 160.998291,603.688110   C160.998291,583.734192 161.488998,564.072693 160.750916,544.457520   C160.465363,536.869019 156.887299,529.564087 149.992401,525.042236   C139.750275,518.325073 128.757721,518.060425 117.966515,523.174316   C113.081779,525.489136 109.014755,529.529480 104.553574,532.804077   C99.553986,523.725037 91.391884,520.203430 81.265953,519.964417   C71.042801,519.723022 63.108498,524.131592 56.009987,532.695801   C56.009987,528.785828 56.009987,526.077637 56.009987,523.261536   C48.817486,523.261536 42.081608,523.261536 35.288353,523.261536   C35.288353,550.251831 35.288353,576.979675 35.288353,603.682068   C42.645748,603.682068 49.710155,603.682068 57.000008,603.682068   C57.000008,589.719910 56.933365,576.073853 57.030132,562.429077   C57.073830,556.267578 58.958416,550.583130 62.818913,545.748169   C66.499901,541.138123 71.748444,540.038391 77.104935,541.211304   C82.052834,542.294678 85.222771,545.856384 85.982468,551.082764   C86.427261,554.142761 86.933022,557.230591 86.954727,560.309143   C87.056564,574.751587 87.000000,589.195190 87.000000,603.718628   C94.569618,603.718628 101.633110,603.718628 109.000000,603.718628   C109.000000,590.803589 108.835808,578.164307 109.093102,565.533630   C109.177971,561.367798 109.463943,556.780640 111.259499,553.186218   C113.349045,549.003113 116.482307,544.289246 120.422760,542.292419   C129.884003,537.497864 138.934296,544.076477 138.984085,554.921692   C139.049103,569.086182 139.000000,583.251282 139.000000,598.390503  M1627.000000,529.583984   C1627.000000,565.984985 1627.000000,602.385986 1627.000000,638.647217   C1634.722046,638.647217 1641.785767,638.647217 1648.744385,638.647217   C1648.744385,624.249878 1648.744385,610.205933 1648.744385,595.627380   C1650.896851,597.538757 1652.646362,599.527893 1654.784180,600.920654   C1669.957886,610.806152 1691.873779,606.808411 1703.848022,590.255432   C1716.705811,572.481262 1714.797729,543.819641 1697.713379,529.114624   C1687.532471,520.351440 1670.778931,516.624023 1658.566650,523.211609   C1655.070801,525.097351 1651.945557,527.670288 1648.195312,530.239868   C1648.057373,527.601746 1647.942993,525.415527 1647.833984,523.331299   C1640.662109,523.331299 1633.930786,523.331299 1627.000000,523.331299   C1627.000000,525.310974 1627.000000,526.960327 1627.000000,529.583984  M451.000000,565.500000   C451.000000,589.918091 451.000000,614.336182 451.000000,638.662781   C458.688110,638.662781 465.751617,638.662781 472.744141,638.662781   C472.744141,624.272644 472.744141,610.220459 472.744141,595.639709   C474.869629,597.530884 476.638672,599.473206 478.746979,600.921753   C493.662323,611.169678 517.443420,605.766113 528.029236,589.860291   C537.651306,575.402588 538.704285,559.840942 532.458435,544.163635   C525.535767,526.787415 507.515381,515.934814 487.977509,521.215881   C482.302032,522.750000 477.328583,526.881287 471.911804,529.889526   C471.911804,528.053406 471.911804,525.679626 471.911804,523.297180   C464.740326,523.297180 458.004608,523.297180 451.000000,523.297180   C451.000000,537.228394 451.000000,550.864197 451.000000,565.500000  M377.509766,547.004272   C378.315460,547.122498 379.596436,547.625061 379.857178,547.302673   C385.915833,539.811218 393.578613,537.168274 403.028259,538.959778   C410.128754,540.305908 415.525330,547.160583 414.373444,553.919739   C403.931061,549.961853 393.114136,549.763855 382.485291,552.152588   C369.643066,555.038879 362.082031,564.181946 361.072266,575.717285   C359.150787,597.668762 379.754059,609.462769 397.919373,605.280762   C404.014893,603.877380 409.424530,599.494690 415.160034,596.467285   C415.160034,598.317871 415.160034,601.035400 415.160034,603.678955   C422.660004,603.678955 429.720276,603.678955 435.997559,603.678955   C435.997559,583.976746 436.419525,564.586548 435.783234,545.231079   C435.539612,537.819763 431.420898,531.410461 424.948547,526.973511   C415.863434,520.745605 405.599915,519.611450 395.036316,520.035339   C382.015869,520.557739 371.226166,525.752686 362.462006,536.430847   C367.459320,539.894592 372.222107,543.195801 377.509766,547.004272  M701.518555,568.000000   C713.839294,568.000000 726.160034,568.000000 738.480774,568.000000   C749.476074,568.000000 749.476013,568.000000 749.001282,557.035522   C748.994080,556.869324 749.011658,556.701721 748.998352,556.536255   C747.209595,534.308289 734.015076,522.242065 714.531311,520.185242   C696.934937,518.327637 682.392761,524.622620 673.056396,540.477417   C665.422852,553.440369 664.757874,567.179138 670.497925,580.762756   C676.233887,594.336670 686.545349,602.925598 701.583008,605.248840   C721.736023,608.362244 736.061096,602.211914 746.993286,586.285217   C747.565552,585.451477 746.930420,582.639465 746.070068,582.159302   C740.729004,579.178528 735.162842,576.601196 729.682556,573.895447   C724.781860,583.183411 716.082703,587.615662 706.367676,585.978516   C697.470642,584.479126 690.615417,577.224915 689.541321,568.000000   C693.217468,568.000000 696.873291,568.000000 701.518555,568.000000  M233.959610,577.262085   C228.301147,584.623535 220.607315,587.601013 211.790421,585.723755   C202.735916,583.795715 196.914932,577.837524 195.124222,568.000000   C211.744171,568.000000 228.202057,568.000000 244.659943,568.000000   C255.646912,568.000000 255.645691,568.000061 255.004547,557.343201   C254.974579,556.845215 255.014969,556.343384 254.997818,555.844116   C254.677048,546.503540 251.261200,538.073486 244.880936,531.656433   C233.143082,519.850830 218.437820,517.218689 202.792908,521.776794   C174.131821,530.127136 164.958313,564.525269 180.026520,587.430420   C188.980621,601.041504 202.097778,606.523010 218.198563,606.061340   C233.359009,605.626526 244.531647,598.602722 253.032364,586.497742   C254.599121,584.266724 254.153183,583.075012 251.815430,581.941772   C246.421936,579.327209 241.101257,576.562378 235.764801,573.865417   C235.109192,574.891663 234.588150,575.707275 233.959610,577.262085  M932.086792,600.585754   C943.806580,606.397827 955.903687,607.755615 968.589355,604.108826   C992.404663,597.262634 1002.219666,572.155151 996.427612,551.043640   C991.807190,534.202698 980.697815,524.183533 963.111816,520.829346   C940.386963,516.494995 918.878418,529.363647 913.351990,551.289429   C908.799988,569.349426 915.054138,590.139465 932.086792,600.585754  M1293.183594,605.999695   C1300.899170,605.217896 1308.232422,602.788635 1314.218872,598.072266   C1331.615112,584.366882 1335.325684,561.936096 1326.591797,543.340088   C1320.523315,530.419128 1309.974976,523.329651 1295.629883,520.704346   C1280.288330,517.896729 1261.606567,524.090637 1252.621704,537.692627   C1244.914185,549.360962 1243.320679,561.775574 1246.542114,575.042603   C1248.536133,583.254578 1252.604614,590.363892 1258.989136,595.981445   C1268.526367,604.372986 1279.956787,606.662354 1293.183594,605.999695  M1419.000000,594.464050   C1419.000000,581.631470 1419.289062,568.789429 1418.866577,555.970764   C1418.681885,550.366699 1417.664917,544.610474 1415.950928,539.268250   C1409.422241,518.918213 1382.736816,512.862427 1367.443848,528.020630   C1366.282959,529.171387 1364.981934,530.180603 1362.816284,532.064392   C1362.816284,528.147644 1362.816284,525.710449 1362.816284,523.310669   C1355.709961,523.310669 1348.975342,523.310669 1342.339355,523.310669   C1342.339355,550.352295 1342.339355,577.081848 1342.339355,603.630554   C1349.751099,603.630554 1356.818359,603.630554 1364.000000,603.630554   C1364.000000,589.934387 1363.627808,576.591553 1364.192017,563.288452   C1364.403320,558.304199 1366.110229,553.072144 1368.356812,548.561462   C1371.406860,542.437622 1380.065430,539.382996 1386.322021,541.129700   C1392.568970,542.873840 1395.997070,548.272888 1395.999634,556.379761   C1396.001831,563.545959 1396.000000,570.712219 1396.000000,577.878418   C1396.000000,586.484131 1396.000000,595.089905 1396.000000,603.692139   C1403.956665,603.692139 1411.354126,603.692139 1419.000000,603.692139   C1419.000000,600.744385 1419.000000,598.098450 1419.000000,594.464050  M1114.493530,523.000000   C1110.730347,523.000000 1106.967163,523.000000 1103.348633,523.000000   C1103.153320,523.960022 1103.033447,524.275574 1103.032959,524.591309   C1103.015015,535.922302 1103.320923,547.265869 1102.864258,558.578735   C1102.644897,564.013977 1101.743774,569.677612 1099.826782,574.735901   C1095.618896,585.839661 1082.458984,588.116638 1075.202393,582.033325   C1070.792358,578.336243 1070.134277,573.148254 1070.062988,567.989441   C1069.876343,554.494507 1070.007812,540.995361 1069.988770,527.497864   C1069.986694,526.065063 1069.827393,524.632568 1069.750244,523.350952   C1062.286133,523.350952 1055.220459,523.350952 1048.000000,523.350952   C1048.000000,532.189148 1047.874390,540.679443 1048.031616,549.164490   C1048.233765,560.082336 1047.570312,571.165039 1049.229004,581.874878   C1052.362549,602.106018 1066.679932,608.105042 1085.126709,605.458130   C1092.851562,604.349731 1098.295410,599.674438 1104.018188,593.436462   C1104.018188,597.566040 1104.018188,600.609680 1104.018188,603.725159   C1111.216309,603.725159 1117.949097,603.725159 1124.699951,603.725159   C1124.699951,576.722412 1124.699951,549.995667 1124.699951,523.000000   C1121.429443,523.000000 1118.452637,523.000000 1114.493530,523.000000  M1496.958496,533.710632   C1485.036987,516.833191 1456.142700,516.923096 1442.698364,526.036682   C1430.998657,533.967651 1430.234497,548.937073 1436.358887,557.616150   C1440.980103,564.164856 1448.197021,566.996399 1455.739624,569.024048   C1462.262329,570.777344 1468.796997,572.552429 1475.156616,574.798584   C1476.763306,575.366089 1478.810425,577.852234 1478.700439,579.309021   C1478.564819,581.100708 1476.739868,583.540710 1475.022949,584.307983   C1465.439941,588.590149 1455.583008,586.152588 1449.307983,573.865662   C1442.624146,576.698608 1435.913208,579.543030 1429.130371,582.417908   C1432.463379,590.801086 1437.655640,597.106995 1445.519409,601.139404   C1458.558594,607.825806 1471.839478,607.754395 1485.141846,602.316711   C1496.073853,597.847839 1501.484131,589.271118 1500.906006,576.810242   C1500.416626,566.263184 1493.849609,559.990356 1484.304932,556.774292   C1475.920532,553.949097 1467.323120,551.754089 1458.948364,548.902832   C1457.085205,548.268433 1454.495117,546.024902 1454.525635,544.570435   C1454.559814,542.945984 1456.914429,540.819580 1458.753662,539.882935   C1465.330078,536.533997 1474.464722,539.105286 1479.071045,545.010132   C1479.801025,545.945923 1481.645264,547.014587 1482.483643,546.702698   C1488.444580,544.485291 1494.277832,541.924683 1500.501709,539.327332   C1499.110596,537.349548 1498.088013,535.895813 1496.958496,533.710632  M857.070312,542.530640   C863.523499,534.830505 876.694702,538.833862 880.622986,544.521851   C882.457458,547.178162 883.688354,547.119446 886.117859,546.069580   C891.392456,543.790283 896.762512,541.732056 902.087158,539.585999   C892.638184,516.495911 857.486206,515.767212 843.069519,527.279785   C832.672363,535.582581 833.018494,550.659180 838.357727,557.692871   C843.199951,564.071655 850.246155,567.023560 857.802673,569.031616   C864.328735,570.765930 870.853210,572.578430 877.206726,574.839050   C878.803040,575.407104 880.678101,577.804749 880.714233,579.400330   C880.749512,580.956421 878.934875,583.233459 877.346924,584.036255   C867.573547,588.977661 857.365173,585.839355 851.271606,573.855225   C844.602783,576.695740 837.911194,579.545898 831.138916,582.430420   C834.334351,590.775146 839.544556,596.975403 847.127563,600.992249   C860.061096,607.843323 873.426758,607.684082 886.805298,602.586487   C895.058044,599.442017 904.266479,590.064331 903.070923,577.237122   C902.062744,566.419861 895.905151,560.076416 886.250122,556.752014   C877.886292,553.872192 869.324585,551.565430 860.843262,549.028931   C857.944702,548.161987 856.093262,546.645691 857.070312,542.530640  M606.019043,603.999878   C607.406250,603.172302 609.272461,602.672729 610.101135,601.462646   C614.671997,594.788452 618.989624,587.940918 623.693481,580.691467   C628.213013,587.523743 632.544861,594.167786 637.002014,600.726746   C637.856384,601.983948 639.174011,603.801392 640.328125,603.839417   C648.506653,604.109436 656.698242,603.983093 665.665466,603.983093   C656.304565,590.208740 647.530334,577.391907 638.923889,564.463440   C638.198914,563.374329 637.977234,561.173340 638.594971,560.115906   C640.307068,557.184998 642.645447,554.627625 644.631165,551.847534   C651.376770,542.403198 658.076965,532.926331 665.122314,523.000000   C656.858887,523.000000 649.369995,523.240967 641.908508,522.893433   C638.426208,522.731262 636.609192,524.078308 634.987000,526.832886   C631.516724,532.725525 627.829712,538.490479 623.922791,544.806824   C619.313843,537.804932 615.293640,531.533691 611.057739,525.411682   C610.285706,524.295898 608.650757,523.140198 607.384949,523.106750   C599.458801,522.897400 591.524353,523.000977 582.716614,523.000977   C592.020630,536.368835 600.888123,549.109436 610.072144,562.304932   C601.045227,575.683289 591.788391,589.402466 581.938843,604.000000   C590.538879,604.000000 597.823730,604.000000 606.019043,603.999878  M1157.578979,498.000000   C1155.479004,498.000000 1153.379150,498.000000 1150.835205,498.000000   C1150.835205,506.639343 1150.835205,514.706116 1150.835205,523.211365   C1145.983521,523.211365 1141.582520,523.211365 1137.356079,523.211365   C1137.356079,529.738464 1137.356079,535.802002 1137.356079,542.305481   C1142.111572,542.305481 1146.511353,542.305481 1151.000000,542.305481   C1151.000000,553.415100 1150.540039,564.094055 1151.179199,574.706787   C1151.540649,580.709412 1152.794800,587.018982 1155.268799,592.451782   C1159.320923,601.351135 1167.839600,604.284058 1177.008423,604.933777   C1183.881958,605.420837 1190.525391,604.071289 1196.766724,601.109131   C1194.625366,594.210205 1192.622681,587.757568 1190.674072,581.479187   C1188.815796,582.052429 1187.297119,582.632874 1185.727295,582.985962   C1178.599731,584.589111 1174.220093,581.169739 1174.013184,573.839417   C1173.933350,571.011780 1174.000000,568.179993 1174.000000,565.350098   C1174.000000,557.607117 1174.000000,549.864136 1174.000000,541.683228   C1180.792847,541.683228 1186.857300,541.683228 1192.767334,541.683228   C1192.767334,535.280273 1192.767334,529.338135 1192.767334,522.947327   C1186.480347,522.947327 1180.409668,522.947327 1173.904785,522.947327   C1173.904785,514.434631 1173.904785,506.371124 1173.904785,498.000000   C1168.491089,498.000000 1163.526611,498.000000 1157.578979,498.000000  M1571.000000,574.500000   C1571.000000,545.100830 1571.000000,515.701660 1571.000000,486.303406   C1563.373291,486.303406 1556.314697,486.303406 1549.282227,486.303406   C1549.282227,525.636597 1549.282227,564.665710 1549.282227,603.696777   C1556.626343,603.696777 1563.684937,603.696777 1571.000000,603.696777   C1571.000000,594.097351 1571.000000,584.798645 1571.000000,574.500000  M1031.000000,558.500000   C1031.000000,534.429138 1031.000000,510.358246 1031.000000,486.310486   C1023.358582,486.310486 1016.299988,486.310486 1009.289185,486.310486   C1009.289185,525.650757 1009.289185,564.679871 1009.289185,603.689697   C1016.640930,603.689697 1023.699524,603.689697 1031.000000,603.689697   C1031.000000,588.753906 1031.000000,574.126953 1031.000000,558.500000  M784.000000,568.500000   C784.000000,541.098999 784.000000,513.698059 784.000000,486.306030   C776.367798,486.306030 769.309143,486.306030 762.284790,486.306030   C762.284790,525.641846 762.284790,564.670959 762.284790,603.694092   C769.631775,603.694092 776.690369,603.694092 784.000000,603.694092   C784.000000,592.093323 784.000000,580.796692 784.000000,568.500000  M1610.000000,567.500000   C1610.000000,540.432068 1610.000000,513.364075 1610.000000,486.306488   C1602.366211,486.306488 1595.307739,486.306488 1588.285156,486.306488   C1588.285156,525.642822 1588.285156,564.671936 1588.285156,603.693726   C1595.632690,603.693726 1602.691284,603.693726 1610.000000,603.693726   C1610.000000,591.759460 1610.000000,580.129700 1610.000000,567.500000  M572.000000,583.499817   C572.000000,563.431702 572.000000,543.363647 572.000000,523.302734   C564.369568,523.302734 557.313477,523.302734 550.284790,523.302734   C550.284790,550.304504 550.284790,577.002625 550.284790,603.697571   C557.629944,603.697571 564.685974,603.697571 572.000000,603.697571   C572.000000,597.098694 572.000000,590.799194 572.000000,583.499817  M1212.700195,523.001221   C1208.806519,522.611633 1210.046021,525.554138 1210.040649,527.375977   C1209.977539,549.008972 1210.000000,570.642151 1210.000000,592.275330   C1210.000000,596.055847 1210.000000,599.836426 1210.000000,603.745605   C1217.528687,603.745605 1224.584106,603.745605 1231.759033,603.745605   C1231.759033,576.789856 1231.759033,550.089050 1231.759033,523.000000   C1225.573853,523.000000 1219.621460,523.000000 1212.700195,523.001221  M1442.350952,49.148762   C1443.578491,48.767494 1444.991089,48.656273 1446.004517,47.962276   C1454.102783,42.416077 1459.504517,32.390057 1453.637329,21.170347   C1449.727783,13.694664 1438.798950,7.946916 1428.559692,12.898035   C1422.408813,15.872256 1417.593018,20.039968 1417.021362,27.415838   C1416.329468,36.343456 1418.151611,44.435158 1427.470215,47.887695   C1431.858765,49.513702 1436.968384,49.193985 1442.350952,49.148762  M548.325439,504.831207   C550.130737,506.621002 551.698730,508.776642 553.786560,510.130737   C559.622559,513.915710 569.239868,512.131165 572.676514,506.679443   C576.356445,500.841644 576.713440,490.973755 569.872925,486.352722   C565.024780,483.077606 556.495300,483.155792 551.875793,486.637665   C547.268127,490.110596 545.595337,497.653229 548.325439,504.831207  M1209.030518,506.196106   C1210.625122,507.557068 1212.079102,509.144562 1213.840454,510.236603   C1219.182861,513.548889 1227.214233,512.474060 1231.436035,508.071899   C1235.240112,504.105164 1236.458374,494.245422 1233.649292,490.160126   C1229.267456,483.787659 1219.349854,481.905396 1212.581055,486.141907   C1207.632446,489.239349 1204.523560,498.449432 1209.030518,506.196106  z"/>
<path fill="#ebf0f4" opacity="1.000000" stroke="none" d=" M1036.000000,291.000000   C1036.000000,301.164032 1036.212402,310.833771 1035.954834,320.490936   C1035.449707,339.424591 1033.188843,358.121002 1027.003540,376.145142   C1019.369385,398.391022 1007.554321,418.107300 989.732971,433.606689   C971.476685,449.484161 950.174194,459.276031 926.339905,464.188721   C908.612000,467.842743 890.758362,467.866089 873.081604,466.697662   C846.883301,464.966064 822.499878,456.235992 801.015076,440.898010   C781.719177,427.122742 766.125244,410.037048 757.642578,387.315582   C756.732361,384.877716 757.053528,383.923065 759.505127,382.944672   C780.853271,374.425262 802.145935,365.767090 823.467285,357.180267   C824.456726,356.781769 825.561462,356.669708 825.674194,356.643372   C831.070862,364.934174 835.549072,373.674225 841.778992,380.904999   C849.242737,389.567841 859.208923,395.394897 870.313477,398.660553   C893.999207,405.626129 916.635132,402.596649 936.686157,388.416595   C951.317505,378.069336 960.132080,362.764099 962.787720,344.976440   C964.823547,331.339874 964.936279,317.416229 965.904236,303.620270   C965.314880,303.272369 964.725525,302.924500 964.136230,302.576630   C962.298401,304.011261 960.106201,305.159149 958.677612,306.924866   C944.123840,324.912994 925.226990,335.516174 902.560303,338.832611   C891.206848,340.493774 879.498230,341.563660 868.106628,340.739685   C845.595642,339.111420 825.223511,330.836365 806.899780,317.468231   C786.564392,302.632477 772.446411,282.957794 762.195557,260.368927   C756.994141,248.906998 753.097534,236.883957 752.040649,224.207169   C751.166443,213.721985 749.888062,203.184845 750.167969,192.707565   C750.690918,173.139526 754.726440,154.280548 762.827881,136.199234   C770.511047,119.051361 780.572815,103.655174 793.981567,90.689423   C811.467834,73.781006 832.454163,62.791569 856.349792,58.206818   C865.799255,56.393803 875.675842,55.860310 885.313110,56.164783   C907.157776,56.854946 927.421936,63.264233 944.897705,76.650993   C950.630188,81.042091 955.009338,87.187065 960.094299,92.445984   C961.226501,93.616959 962.724670,94.434059 964.878479,96.021461   C964.878479,85.061333 964.878479,75.316689 964.878479,65.288849   C988.641296,65.288849 1012.039124,65.288849 1036.000000,65.288849   C1036.000000,140.340424 1036.000000,215.420212 1036.000000,291.000000  M834.477966,239.982376   C838.558533,245.061584 842.222290,250.556168 846.794800,255.145187   C863.134338,271.543640 883.441040,277.181641 905.758972,273.737518   C922.218445,271.197479 936.386719,263.312469 947.467407,250.183807   C957.409424,238.404114 963.368164,224.874771 964.778198,209.884293   C966.445190,192.160934 964.516174,174.794144 955.386536,158.674515   C943.386902,137.487671 924.968079,126.074028 901.492004,123.213020   C884.356812,121.124779 868.417725,125.682220 854.016602,135.872177   C843.661926,143.198929 836.670715,153.036285 831.171997,163.919952   C824.883789,176.366348 823.384583,189.967880 823.947205,203.867569   C824.461060,216.561691 827.731750,228.368179 834.477966,239.982376  z"/>
<path fill="#ebf0f4" opacity="1.000000" stroke="none" d=" M390.000000,296.000000   C390.000000,254.675064 390.043213,213.850052 389.970734,173.025238   C389.951721,162.332581 387.490173,152.172928 381.975464,142.917221   C375.622620,132.254700 365.922424,126.599312 353.834869,125.043571   C339.337921,123.177734 325.890015,125.987747 314.067078,134.996948   C304.730988,142.111160 298.432068,151.508911 294.036743,162.233612   C287.891449,177.228424 285.836243,192.892120 285.925140,209.055359   C286.150574,250.045700 286.000000,291.038086 286.000000,332.029663   C286.000000,333.836029 286.000000,335.642395 286.000000,337.723083   C261.333344,337.723083 236.934738,337.723083 212.000000,337.723083   C212.000000,335.948425 212.000000,334.176453 212.000000,332.404480   C212.000000,279.582001 212.132538,226.758972 211.910477,173.937454   C211.852097,160.049606 208.470016,146.778473 198.605957,136.380524   C192.491638,129.935272 184.279510,126.358276 175.502701,125.122658   C165.659714,123.736946 155.829193,124.123604 146.428284,128.176987   C136.221344,132.577896 128.320358,139.652573 122.574905,149.000397   C114.117966,162.759811 109.355164,177.916931 109.121613,193.988220   C108.444794,240.561676 108.333099,287.143341 108.001144,333.721771   C107.991905,335.018646 107.999985,336.315643 107.999985,337.787506   C83.528862,337.787506 59.463840,337.787506 35.207390,337.787506   C35.207390,246.853027 35.207390,156.131027 35.207390,65.204521   C58.027390,65.204521 80.641975,65.204521 103.776146,65.204521   C103.776146,76.955200 103.776146,88.850250 103.776146,100.745308   C104.258148,101.042702 104.740150,101.340088 105.222153,101.637482   C107.384811,99.332619 109.791283,97.209969 111.671532,94.694046   C126.641716,74.662880 146.736038,62.821148 171.013687,58.135529   C179.010727,56.592087 187.346283,55.880905 195.481140,56.154457   C215.846695,56.839294 234.509567,62.391434 250.645340,75.856422   C260.416779,84.010483 267.503448,93.794350 273.161438,104.998466   C288.274323,84.066086 306.772705,68.004745 331.738220,60.757584   C346.763275,56.395996 362.053711,55.208118 377.791565,56.788506   C391.563019,58.171421 404.421967,61.432274 416.652100,67.899841   C434.483826,77.329659 446.276703,92.022896 453.890747,110.209076   C459.222168,122.943253 462.627289,136.266785 463.034912,150.218979   C463.173981,154.977844 463.951080,159.725967 463.956818,164.479568   C464.024109,220.301346 464.000000,276.123230 464.000000,331.945099   C464.000000,333.759338 464.000000,335.573547 464.000000,337.693176   C439.394012,337.693176 414.995056,337.693176 390.000000,337.693176   C390.000000,324.019714 390.000000,310.259857 390.000000,296.000000  z"/>
<path fill="#ebf0f4" opacity="1.000000" stroke="none" d=" M588.419678,277.766235   C599.096436,279.308380 609.431152,281.875977 619.723145,281.715332   C635.391663,281.470703 650.210022,276.913910 661.798767,265.549713   C669.143250,258.347595 675.784668,250.428619 683.336548,242.181107   C702.454285,251.740860 722.788391,261.908844 744.115845,272.573547   C737.979858,281.086700 732.575989,289.318420 726.426941,296.949646   C716.296875,309.521362 704.015320,319.882782 690.200928,328.129333   C675.704956,336.782806 660.171021,343.383911 643.156494,344.877716   C628.707764,346.146301 614.097046,347.529877 599.678162,346.720734   C577.848633,345.495728 556.949951,339.473328 538.314758,327.613739   C528.759583,321.532776 519.070435,315.132721 511.083954,307.219543   C490.221558,286.548615 476.453339,261.631714 472.134888,232.299545   C470.228119,219.348160 468.753693,206.099060 469.294403,193.076950   C470.081512,174.120422 474.676849,155.837921 482.743744,138.324783   C491.169250,120.032997 502.656799,104.226463 517.612915,91.064957   C536.247192,74.666725 557.581726,63.032021 582.373596,59.132542   C593.832275,57.330235 605.556030,55.872665 617.100708,56.219337   C647.052734,57.118763 674.878418,65.041328 698.766357,84.216797   C721.332642,102.331329 734.884277,125.985512 741.963806,153.651993   C745.334412,166.824265 747.471130,180.183487 747.035645,193.872665   C746.828796,200.373611 746.893555,206.888962 747.039124,213.393234   C747.129395,217.425888 745.946777,219.113510 741.408447,219.102890   C676.919128,218.951874 612.429382,219.000000 547.939697,219.000000   C546.124512,219.000000 544.309387,219.000000 542.488708,219.000000   C543.170227,241.224533 560.024048,268.040741 588.419678,277.766235  M653.569702,129.952606   C618.324219,103.927330 560.390564,115.925636 546.239563,165.714722   C589.458862,165.714722 632.659302,165.714722 676.091614,165.714722   C673.295776,150.813354 665.441895,139.420288 653.569702,129.952606  z"/>
<path fill="#ebf0f4" opacity="1.000000" stroke="none" d=" M1124.379395,127.233788   C1116.310791,133.885162 1108.562134,140.337601 1100.012085,147.457352   C1083.456299,136.130356 1065.653687,123.950417 1047.044434,111.218544   C1052.156738,105.494843 1056.347412,99.472855 1061.804443,94.993530   C1070.797363,87.611816 1080.359741,80.841660 1090.140869,74.523933   C1101.604980,67.119308 1114.553345,62.967880 1127.802368,60.066902   C1143.423340,56.646618 1159.319946,55.217667 1175.284302,56.073128   C1199.885742,57.391430 1223.993042,61.153656 1245.918457,73.449150   C1269.885254,86.889305 1284.938965,107.279716 1291.943115,133.642181   C1295.826294,148.257751 1297.026123,163.247696 1297.015137,178.356003   C1296.976196,231.668381 1297.000000,284.980804 1297.000000,338.646576   C1272.823242,338.646576 1248.757935,338.646576 1224.263184,338.646576   C1224.263184,329.475708 1224.263184,320.063904 1224.263184,310.731628   C1220.376465,310.052277 1219.154907,310.983826 1216.318848,314.142090   C1202.748779,329.253967 1187.257568,341.754242 1166.514526,344.810242   C1154.678955,346.553986 1142.428467,347.748810 1130.586426,346.696472   C1107.884033,344.679077 1087.458130,336.231323 1070.143066,320.752380   C1054.791138,307.028534 1045.352417,289.946777 1042.235474,269.975983   C1038.105957,243.516373 1042.892456,218.858246 1060.758789,197.654358   C1076.524170,178.944107 1097.033691,169.161118 1120.419312,163.894836   C1137.419922,160.066452 1154.589844,160.574371 1171.677002,161.209610   C1188.210449,161.824265 1204.244263,166.160934 1219.939941,171.443375   C1221.165039,171.855682 1222.409058,172.211517 1223.611328,172.583420   C1225.994873,157.465622 1221.308716,144.348770 1210.982178,133.767471   C1201.639893,124.194672 1189.659912,119.023224 1176.268677,116.922691   C1157.758301,114.019196 1140.831055,118.274544 1124.379395,127.233788  M1144.594238,217.997498   C1137.099854,220.425476 1130.324341,223.922333 1124.715942,229.708099   C1108.172729,246.774490 1112.076050,274.160339 1137.533203,284.975647   C1146.910767,288.959656 1156.501343,290.487640 1166.891602,289.187988   C1180.922119,287.432983 1192.951904,281.907196 1203.499023,272.914307   C1215.249512,262.895355 1221.297852,249.629578 1223.923950,234.687271   C1224.629028,230.674591 1224.452393,226.840042 1219.158203,225.516541   C1216.071777,224.744934 1213.187256,223.173721 1210.202515,221.986038   C1194.238525,215.633987 1177.568237,214.042984 1160.614502,215.102310   C1155.511719,215.421127 1150.485107,216.960190 1144.594238,217.997498  z"/>
<path fill="#9bc8fa" opacity="1.000000" stroke="none" d=" M1677.996094,475.000000   C1624.875854,475.000000 1572.255127,475.000000 1519.317383,475.000000   C1519.317383,417.055237 1519.317383,359.345184 1519.317383,301.317291   C1576.945068,301.317291 1634.655029,301.317291 1692.682861,301.317291   C1692.682861,358.945099 1692.682861,416.655151 1692.682861,475.000000   C1688.016357,475.000000 1683.255981,475.000000 1677.996094,475.000000  z"/>
<path fill="#ebf0f4" opacity="1.000000" stroke="none" d=" M1311.038574,66.000000   C1317.839355,66.000000 1324.144531,66.000000 1330.846191,66.000000   C1330.846191,70.308342 1330.846191,74.377190 1330.846191,77.655602   C1336.310791,73.790314 1341.488770,69.167244 1347.462769,66.089066   C1363.018066,58.074162 1383.773315,62.302826 1396.970337,72.383095   C1408.623901,81.284546 1415.041016,93.270645 1418.572388,107.118637   C1418.932861,108.531944 1418.778809,110.069122 1419.029297,111.520149   C1419.223633,112.644600 1419.677490,113.724228 1421.000000,114.609596   C1421.000000,106.476906 1421.000000,98.344215 1421.000000,90.211525   C1421.000000,82.050842 1421.000000,73.890152 1421.000000,65.002426   C1430.654175,65.002426 1440.234985,64.872955 1449.810547,65.040176   C1458.732788,65.195999 1467.715820,66.480492 1476.549438,65.761368   C1484.674072,65.099968 1488.566040,68.813148 1492.128296,75.128456   C1496.216431,82.376205 1501.131592,89.157501 1506.193726,96.917511   C1510.518677,89.907570 1514.481323,83.520332 1518.405640,77.109673   C1520.342651,73.945488 1522.049316,70.623817 1524.201294,67.617455   C1524.879150,66.670624 1526.660522,66.081253 1527.944336,66.068199   C1539.423828,65.951393 1550.905029,66.000107 1563.118774,66.000107   C1556.129761,75.862915 1549.461914,85.320297 1542.741943,94.740555   C1537.192993,102.518967 1531.635254,110.292435 1525.964722,117.981949   C1524.427002,120.067009 1524.475952,121.455193 1526.046265,123.690323   C1538.488159,141.400116 1550.725098,159.254013 1563.671631,178.000000   C1560.757446,178.000000 1558.563965,178.000000 1556.370361,178.000000   C1547.706787,177.999969 1539.039673,178.124481 1530.382690,177.884689   C1528.831665,177.841751 1526.782471,176.670502 1525.880981,175.379410   C1519.777954,166.640320 1513.934570,157.720245 1507.968262,148.885056   C1507.277588,147.862350 1506.347168,147.001541 1505.448853,145.975266   C1499.188599,155.769379 1492.980591,165.211044 1487.106201,174.855759   C1485.567871,177.381226 1483.860718,178.076935 1481.146484,178.043777   C1471.817749,177.929794 1462.481934,178.191193 1453.158203,177.949371   C1442.604248,177.675644 1432.060547,177.013504 1420.945801,176.493774   C1420.945801,160.834976 1420.945801,144.978226 1420.945801,129.121475   C1420.547241,128.976288 1420.148560,128.831100 1419.750000,128.685898   C1416.625122,150.164169 1407.386719,167.660507 1386.865479,176.443954   C1366.150269,185.310349 1347.012817,183.201294 1332.041016,165.402039   C1332.041016,185.252533 1332.041016,205.331589 1332.041016,225.708923   C1322.697266,225.708923 1312.630005,225.708923 1302.280151,225.708923   C1302.280151,172.682083 1302.280151,119.626640 1302.280151,66.000000   C1305.000977,66.000000 1307.771973,66.000000 1311.038574,66.000000  M1358.610596,91.000000   C1350.495117,90.933884 1344.026611,94.424782 1338.915283,100.473808   C1331.885864,108.792763 1329.715698,118.217575 1331.908325,129.027603   C1335.127441,144.898376 1351.133911,156.592834 1368.299194,151.414108   C1379.326782,148.087112 1389.370728,135.858063 1389.182251,120.837639   C1388.980225,104.724586 1375.355957,89.670677 1358.610596,91.000000  M1452.000000,118.500000   C1452.000000,135.650070 1452.000000,152.800140 1452.000000,170.297668   C1453.273682,169.826599 1453.711548,169.806870 1453.860474,169.589355   C1464.638672,153.848251 1475.431519,138.116577 1486.051636,122.269188   C1486.647583,121.379822 1486.267578,119.211281 1485.559082,118.171661   C1479.815674,109.745262 1473.862061,101.462601 1468.019043,93.103615   C1462.914185,85.800644 1457.869507,78.455482 1452.000000,69.975594   C1452.000000,86.890182 1452.000000,102.195091 1452.000000,118.500000  z"/>
<path fill="#9bc8fa" opacity="1.000000" stroke="none" d=" M1474.990479,367.000000   C1435.871094,367.000000 1397.250366,367.000000 1358.315186,367.000000   C1358.315186,323.717651 1358.315186,280.674133 1358.315186,237.314926   C1401.282593,237.314926 1444.326172,237.314926 1487.685303,237.314926   C1487.685303,280.283051 1487.685303,323.326569 1487.685303,367.000000   C1483.681519,367.000000 1479.585327,367.000000 1474.990479,367.000000  z"/>
<path fill="#ebf0f4" opacity="1.000000" stroke="none" d=" M1694.000000,104.000000   C1694.000000,128.805695 1694.000000,153.111374 1694.000000,177.708145   C1683.697632,177.708145 1673.629272,177.708145 1663.129150,177.708145   C1663.129150,161.328445 1663.129150,144.913162 1663.129150,128.804871   C1634.981934,128.804871 1607.259888,128.804871 1579.079468,128.804871   C1581.166870,139.998978 1586.581177,148.276749 1597.028564,151.837021   C1608.366821,155.700897 1619.439697,155.265167 1628.600952,145.924011   C1631.271851,143.200623 1633.834351,139.047440 1636.970459,138.488571   C1639.909058,137.964859 1643.543701,141.325333 1646.867188,142.986069   C1651.620483,145.361343 1656.369507,147.745224 1661.369751,150.250397   C1652.605835,165.306976 1640.688354,175.875885 1623.947632,179.426285   C1598.552246,184.812180 1574.593750,178.608276 1558.918579,156.319809   C1544.339600,135.590347 1545.626465,103.109009 1561.850830,83.532234   C1571.525757,71.858170 1583.481079,65.111061 1598.500366,62.877380   C1613.872925,60.591187 1627.958252,63.223652 1640.683228,72.019196   C1651.922729,79.788033 1658.244507,90.902908 1661.022339,104.155731   C1661.202026,105.012207 1661.680054,105.806145 1662.790161,106.486794   C1662.790161,76.196297 1662.790161,45.905792 1662.790161,15.308530   C1673.267822,15.308530 1683.336548,15.308530 1694.000000,15.308530   C1694.000000,44.652119 1694.000000,74.076057 1694.000000,104.000000  M1628.597046,97.066971   C1612.655273,78.982841 1586.125854,87.904205 1581.214844,107.000000   C1589.916870,107.000000 1598.541992,107.000000 1607.167236,107.000000   C1615.720825,107.000000 1624.274292,107.000000 1633.613159,107.000000   C1631.841675,103.332260 1630.463745,100.479111 1628.597046,97.066971  z"/>
<path fill="#9bc8fa" opacity="1.000000" stroke="none" d=" M1606.000000,190.152740   C1606.000000,217.911987 1606.000000,245.187744 1606.000000,272.731079   C1576.956299,272.731079 1548.244629,272.731079 1519.266113,272.731079   C1519.266113,243.950623 1519.266113,215.238876 1519.266113,186.170563   C1520.435669,186.111862 1521.548584,186.007629 1522.661377,186.007233   C1548.970947,185.998047 1575.280396,186.016205 1601.589966,185.975159   C1604.235596,185.971039 1606.803467,185.713730 1606.000000,190.152740  z"/>
<path fill="#9bc8fa" opacity="1.000000" stroke="none" d=" M326.546539,529.453735   C326.911041,527.359314 326.911041,525.390625 326.911041,523.212402   C334.378906,523.212402 341.464783,523.212402 349.000000,523.212402   C349.000000,528.862366 349.000000,534.315308 349.000000,539.768188   C349.000000,559.261841 349.256042,578.760132 348.907288,598.247559   C348.685852,610.621826 345.196472,622.056091 335.682983,630.769470   C328.608490,637.248962 320.214600,640.595886 310.556396,641.042114   C298.478149,641.600098 287.253784,639.815125 277.271271,632.152161   C271.858673,627.997314 268.463165,622.815125 265.757935,616.410156   C272.947418,613.480591 279.943054,610.630005 286.919159,607.787476   C292.291534,618.626038 302.081573,623.964233 312.162720,620.767090   C320.187531,618.222107 328.316956,612.203918 326.883911,594.496826   C323.440948,596.936768 320.382751,600.135681 316.646606,601.575500   C299.173218,608.309143 278.586761,602.256592 269.552460,584.155396   C261.273651,567.568054 261.740448,551.437561 272.063324,536.110596   C284.418854,517.765625 310.832550,513.996338 326.546539,529.453735  M304.078400,540.415771   C302.402130,540.937134 300.641113,541.276306 299.063904,542.010498   C291.170715,545.684570 284.340759,555.285156 287.070068,567.606995   C288.673950,574.848145 292.957031,580.319580 300.010071,582.897888   C307.952057,585.801270 315.631622,583.705994 321.131866,577.996948   C327.659088,571.221985 329.066681,562.251343 325.632385,553.383789   C322.067810,544.179993 314.458710,540.306885 304.078400,540.415771  z"/>
<path fill="#9bc8fa" opacity="1.000000" stroke="none" d=" M139.000000,597.903320   C139.000000,583.251282 139.049103,569.086182 138.984085,554.921692   C138.934296,544.076477 129.884003,537.497864 120.422760,542.292419   C116.482307,544.289246 113.349045,549.003113 111.259499,553.186218   C109.463943,556.780640 109.177971,561.367798 109.093102,565.533630   C108.835808,578.164307 109.000000,590.803589 109.000000,603.718628   C101.633110,603.718628 94.569618,603.718628 87.000000,603.718628   C87.000000,589.195190 87.056564,574.751587 86.954727,560.309143   C86.933022,557.230591 86.427261,554.142761 85.982468,551.082764   C85.222771,545.856384 82.052834,542.294678 77.104935,541.211304   C71.748444,540.038391 66.499901,541.138123 62.818913,545.748169   C58.958416,550.583130 57.073830,556.267578 57.030132,562.429077   C56.933365,576.073853 57.000008,589.719910 57.000008,603.682068   C49.710155,603.682068 42.645748,603.682068 35.288353,603.682068   C35.288353,576.979675 35.288353,550.251831 35.288353,523.261536   C42.081608,523.261536 48.817486,523.261536 56.009987,523.261536   C56.009987,526.077637 56.009987,528.785828 56.009987,532.695801   C63.108498,524.131592 71.042801,519.723022 81.265953,519.964417   C91.391884,520.203430 99.553986,523.725037 104.553574,532.804077   C109.014755,529.529480 113.081779,525.489136 117.966515,523.174316   C128.757721,518.060425 139.750275,518.325073 149.992401,525.042236   C156.887299,529.564087 160.465363,536.869019 160.750916,544.457520   C161.488998,564.072693 160.998291,583.734192 160.998291,603.688110   C153.696899,603.688110 146.632751,603.688110 139.000000,603.688110   C139.000000,601.932190 139.000000,600.161377 139.000000,597.903320  z"/>
<path fill="#9bc8fa" opacity="1.000000" stroke="none" d=" M1627.000000,529.096863   C1627.000000,526.960327 1627.000000,525.310974 1627.000000,523.331299   C1633.930786,523.331299 1640.662109,523.331299 1647.833984,523.331299   C1647.942993,525.415527 1648.057373,527.601746 1648.195312,530.239868   C1651.945557,527.670288 1655.070801,525.097351 1658.566650,523.211609   C1670.778931,516.624023 1687.532471,520.351440 1697.713379,529.114624   C1714.797729,543.819641 1716.705811,572.481262 1703.848022,590.255432   C1691.873779,606.808411 1669.957886,610.806152 1654.784180,600.920654   C1652.646362,599.527893 1650.896851,597.538757 1648.744385,595.627380   C1648.744385,610.205933 1648.744385,624.249878 1648.744385,638.647217   C1641.785767,638.647217 1634.722046,638.647217 1627.000000,638.647217   C1627.000000,602.385986 1627.000000,565.984985 1627.000000,529.096863  M1648.986816,556.769958   C1648.657959,559.508240 1647.999023,562.253967 1648.060547,564.983459   C1648.264160,574.039734 1657.134521,584.006531 1665.159424,585.043579   C1682.712769,587.311890 1693.414917,570.019775 1688.501831,555.865051   C1683.811523,542.352173 1670.026855,536.464844 1658.152954,544.219421   C1654.232788,546.779602 1652.024048,551.960388 1648.986816,556.769958  z"/>
<path fill="#9bc8fa" opacity="1.000000" stroke="none" d=" M451.000000,565.000000   C451.000000,550.864197 451.000000,537.228394 451.000000,523.297180   C458.004608,523.297180 464.740326,523.297180 471.911804,523.297180   C471.911804,525.679626 471.911804,528.053406 471.911804,529.889526   C477.328583,526.881287 482.302032,522.750000 487.977509,521.215881   C507.515381,515.934814 525.535767,526.787415 532.458435,544.163635   C538.704285,559.840942 537.651306,575.402588 528.029236,589.860291   C517.443420,605.766113 493.662323,611.169678 478.746979,600.921753   C476.638672,599.473206 474.869629,597.530884 472.744141,595.639709   C472.744141,610.220459 472.744141,624.272644 472.744141,638.662781   C465.751617,638.662781 458.688110,638.662781 451.000000,638.662781   C451.000000,614.336182 451.000000,589.918091 451.000000,565.000000  M472.000000,562.566833   C471.529968,575.488037 482.436981,584.640869 490.725098,585.068481   C505.370178,585.824036 513.475525,575.557495 513.709717,563.428894   C513.938110,551.598633 507.030579,542.326904 495.084534,541.071594   C482.080658,539.705017 473.439575,549.111633 472.000000,562.566833  z"/>
<path fill="#9bc8fa" opacity="1.000000" stroke="none" d=" M377.247314,546.750610   C372.222107,543.195801 367.459320,539.894592 362.462006,536.430847   C371.226166,525.752686 382.015869,520.557739 395.036316,520.035339   C405.599915,519.611450 415.863434,520.745605 424.948547,526.973511   C431.420898,531.410461 435.539612,537.819763 435.783234,545.231079   C436.419525,564.586548 435.997559,583.976746 435.997559,603.678955   C429.720276,603.678955 422.660004,603.678955 415.160034,603.678955   C415.160034,601.035400 415.160034,598.317871 415.160034,596.467285   C409.424530,599.494690 404.014893,603.877380 397.919373,605.280762   C379.754059,609.462769 359.150787,597.668762 361.072266,575.717285   C362.082031,564.181946 369.643066,555.038879 382.485291,552.152588   C393.114136,549.763855 403.931061,549.961853 414.373444,553.919739   C415.525330,547.160583 410.128754,540.305908 403.028259,538.959778   C393.578613,537.168274 385.915833,539.811218 379.857178,547.302673   C379.596436,547.625061 378.315460,547.122498 377.247314,546.750610  M384.046844,574.792908   C382.711792,579.273071 383.760559,583.196045 387.595428,585.790649   C395.260712,590.976868 407.781982,587.562256 412.217224,579.326599   C416.483734,571.404236 416.389526,570.933167 408.037598,568.546936   C397.854675,565.637451 389.878693,566.632935 384.046844,574.792908  z"/>
<path fill="#9bc8fa" opacity="1.000000" stroke="none" d=" M701.023804,568.000000   C696.873291,568.000000 693.217468,568.000000 689.541321,568.000000   C690.615417,577.224915 697.470642,584.479126 706.367676,585.978516   C716.082703,587.615662 724.781860,583.183411 729.682556,573.895447   C735.162842,576.601196 740.729004,579.178528 746.070068,582.159302   C746.930420,582.639465 747.565552,585.451477 746.993286,586.285217   C736.061096,602.211914 721.736023,608.362244 701.583008,605.248840   C686.545349,602.925598 676.233887,594.336670 670.497925,580.762756   C664.757874,567.179138 665.422852,553.440369 673.056396,540.477417   C682.392761,524.622620 696.934937,518.327637 714.531311,520.185242   C734.015076,522.242065 747.209595,534.308289 748.998352,556.536255   C749.011658,556.701721 748.994080,556.869324 749.001282,557.035522   C749.476013,568.000000 749.476074,568.000000 738.480774,568.000000   C726.160034,568.000000 713.839294,568.000000 701.023804,568.000000  M693.094727,551.998047   C704.525818,551.998047 715.956909,551.998047 728.695190,551.998047   C725.961182,548.273438 724.320801,544.324646 721.362671,542.342773   C713.702637,537.210754 705.438599,537.533875 697.482666,542.219238   C694.073181,544.227234 691.383423,549.486755 693.094727,551.998047  z"/>
<path fill="#9bc8fa" opacity="1.000000" stroke="none" d=" M234.013351,576.892456   C234.588150,575.707275 235.109192,574.891663 235.764801,573.865417   C241.101257,576.562378 246.421936,579.327209 251.815430,581.941772   C254.153183,583.075012 254.599121,584.266724 253.032364,586.497742   C244.531647,598.602722 233.359009,605.626526 218.198563,606.061340   C202.097778,606.523010 188.980621,601.041504 180.026520,587.430420   C164.958313,564.525269 174.131821,530.127136 202.792908,521.776794   C218.437820,517.218689 233.143082,519.850830 244.880936,531.656433   C251.261200,538.073486 254.677048,546.503540 254.997818,555.844116   C255.014969,556.343384 254.974579,556.845215 255.004547,557.343201   C255.645691,568.000061 255.646912,568.000000 244.659943,568.000000   C228.202057,568.000000 211.744171,568.000000 195.124222,568.000000   C196.914932,577.837524 202.735916,583.795715 211.790421,585.723755   C220.607315,587.601013 228.301147,584.623535 234.013351,576.892456  M199.929916,546.453857   C198.882706,548.103455 197.835495,549.753113 196.572632,551.742432   C209.478577,551.742432 221.466293,551.742432 233.502136,551.742432   C230.321716,536.214783 207.465622,535.182739 199.929916,546.453857  z"/>
<path fill="#9bc8fa" opacity="1.000000" stroke="none" d=" M931.824341,600.314209   C915.054138,590.139465 908.799988,569.349426 913.351990,551.289429   C918.878418,529.363647 940.386963,516.494995 963.111816,520.829346   C980.697815,524.183533 991.807190,534.202698 996.427612,551.043640   C1002.219666,572.155151 992.404663,597.262634 968.589355,604.108826   C955.903687,607.755615 943.806580,606.397827 931.824341,600.314209  M970.574341,548.075562   C964.793762,542.214539 958.152161,539.621887 949.774475,541.615662   C940.204834,543.893066 933.039673,553.597717 934.979736,567.967834   C935.976562,575.351562 942.831055,583.700378 950.042969,584.842407   C957.429565,586.012207 966.365479,584.347961 971.130188,576.666687   C977.027283,567.159912 976.540283,558.000366 970.574341,548.075562  z"/>
<path fill="#9bc8fa" opacity="1.000000" stroke="none" d=" M1292.716675,605.999878   C1279.956787,606.662354 1268.526367,604.372986 1258.989136,595.981445   C1252.604614,590.363892 1248.536133,583.254578 1246.542114,575.042603   C1243.320679,561.775574 1244.914185,549.360962 1252.621704,537.692627   C1261.606567,524.090637 1280.288330,517.896729 1295.629883,520.704346   C1309.974976,523.329651 1320.523315,530.419128 1326.591797,543.340088   C1335.325684,561.936096 1331.615112,584.366882 1314.218872,598.072266   C1308.232422,602.788635 1300.899170,605.217896 1292.716675,605.999878  M1283.236816,541.273743   C1269.519043,545.390503 1265.953491,557.750183 1268.199463,569.293396   C1269.749634,577.259827 1277.547241,584.419800 1284.361816,585.005432   C1302.814453,586.591003 1311.079712,571.980713 1307.304688,555.825073   C1305.340820,547.419983 1297.124146,539.493103 1283.236816,541.273743  z"/>
<path fill="#9bc8fa" opacity="1.000000" stroke="none" d=" M1419.000000,594.958252   C1419.000000,598.098450 1419.000000,600.744385 1419.000000,603.692139   C1411.354126,603.692139 1403.956665,603.692139 1396.000000,603.692139   C1396.000000,595.089905 1396.000000,586.484131 1396.000000,577.878418   C1396.000000,570.712219 1396.001831,563.545959 1395.999634,556.379761   C1395.997070,548.272888 1392.568970,542.873840 1386.322021,541.129700   C1380.065430,539.382996 1371.406860,542.437622 1368.356812,548.561462   C1366.110229,553.072144 1364.403320,558.304199 1364.192017,563.288452   C1363.627808,576.591553 1364.000000,589.934387 1364.000000,603.630554   C1356.818359,603.630554 1349.751099,603.630554 1342.339355,603.630554   C1342.339355,577.081848 1342.339355,550.352295 1342.339355,523.310669   C1348.975342,523.310669 1355.709961,523.310669 1362.816284,523.310669   C1362.816284,525.710449 1362.816284,528.147644 1362.816284,532.064392   C1364.981934,530.180603 1366.282959,529.171387 1367.443848,528.020630   C1382.736816,512.862427 1409.422241,518.918213 1415.950928,539.268250   C1417.664917,544.610474 1418.681885,550.366699 1418.866577,555.970764   C1419.289062,568.789429 1419.000000,581.631470 1419.000000,594.958252  z"/>
<path fill="#9bc8fa" opacity="1.000000" stroke="none" d=" M1114.984619,523.000000   C1118.452637,523.000000 1121.429443,523.000000 1124.699951,523.000000   C1124.699951,549.995667 1124.699951,576.722412 1124.699951,603.725159   C1117.949097,603.725159 1111.216309,603.725159 1104.018188,603.725159   C1104.018188,600.609680 1104.018188,597.566040 1104.018188,593.436462   C1098.295410,599.674438 1092.851562,604.349731 1085.126709,605.458130   C1066.679932,608.105042 1052.362549,602.106018 1049.229004,581.874878   C1047.570312,571.165039 1048.233765,560.082336 1048.031616,549.164490   C1047.874390,540.679443 1048.000000,532.189148 1048.000000,523.350952   C1055.220459,523.350952 1062.286133,523.350952 1069.750244,523.350952   C1069.827393,524.632568 1069.986694,526.065063 1069.988770,527.497864   C1070.007812,540.995361 1069.876343,554.494507 1070.062988,567.989441   C1070.134277,573.148254 1070.792358,578.336243 1075.202393,582.033325   C1082.458984,588.116638 1095.618896,585.839661 1099.826782,574.735901   C1101.743774,569.677612 1102.644897,564.013977 1102.864258,558.578735   C1103.320923,547.265869 1103.015015,535.922302 1103.032959,524.591309   C1103.033447,524.275574 1103.153320,523.960022 1103.348633,523.000000   C1106.967163,523.000000 1110.730347,523.000000 1114.984619,523.000000  z"/>
<path fill="#9bc8fa" opacity="1.000000" stroke="none" d=" M1497.011963,534.076355   C1498.088013,535.895813 1499.110596,537.349548 1500.501709,539.327332   C1494.277832,541.924683 1488.444580,544.485291 1482.483643,546.702698   C1481.645264,547.014587 1479.801025,545.945923 1479.071045,545.010132   C1474.464722,539.105286 1465.330078,536.533997 1458.753662,539.882935   C1456.914429,540.819580 1454.559814,542.945984 1454.525635,544.570435   C1454.495117,546.024902 1457.085205,548.268433 1458.948364,548.902832   C1467.323120,551.754089 1475.920532,553.949097 1484.304932,556.774292   C1493.849609,559.990356 1500.416626,566.263184 1500.906006,576.810242   C1501.484131,589.271118 1496.073853,597.847839 1485.141846,602.316711   C1471.839478,607.754395 1458.558594,607.825806 1445.519409,601.139404   C1437.655640,597.106995 1432.463379,590.801086 1429.130371,582.417908   C1435.913208,579.543030 1442.624146,576.698608 1449.307983,573.865662   C1455.583008,586.152588 1465.439941,588.590149 1475.022949,584.307983   C1476.739868,583.540710 1478.564819,581.100708 1478.700439,579.309021   C1478.810425,577.852234 1476.763306,575.366089 1475.156616,574.798584   C1468.796997,572.552429 1462.262329,570.777344 1455.739624,569.024048   C1448.197021,566.996399 1440.980103,564.164856 1436.358887,557.616150   C1430.234497,548.937073 1430.998657,533.967651 1442.698364,526.036682   C1456.142700,516.923096 1485.036987,516.833191 1497.011963,534.076355  z"/>
<path fill="#9bc8fa" opacity="1.000000" stroke="none" d=" M857.016479,542.899170   C856.093262,546.645691 857.944702,548.161987 860.843262,549.028931   C869.324585,551.565430 877.886292,553.872192 886.250122,556.752014   C895.905151,560.076416 902.062744,566.419861 903.070923,577.237122   C904.266479,590.064331 895.058044,599.442017 886.805298,602.586487   C873.426758,607.684082 860.061096,607.843323 847.127563,600.992249   C839.544556,596.975403 834.334351,590.775146 831.138916,582.430420   C837.911194,579.545898 844.602783,576.695740 851.271606,573.855225   C857.365173,585.839355 867.573547,588.977661 877.346924,584.036255   C878.934875,583.233459 880.749512,580.956421 880.714233,579.400330   C880.678101,577.804749 878.803040,575.407104 877.206726,574.839050   C870.853210,572.578430 864.328735,570.765930 857.802673,569.031616   C850.246155,567.023560 843.199951,564.071655 838.357727,557.692871   C833.018494,550.659180 832.672363,535.582581 843.069519,527.279785   C857.486206,515.767212 892.638184,516.495911 902.087158,539.585999   C896.762512,541.732056 891.392456,543.790283 886.117859,546.069580   C883.688354,547.119446 882.457458,547.178162 880.622986,544.521851   C876.694702,538.833862 863.523499,534.830505 857.016479,542.899170  z"/>
<path fill="#9bc8fa" opacity="1.000000" stroke="none" d=" M605.563843,603.999939   C597.823730,604.000000 590.538879,604.000000 581.938843,604.000000   C591.788391,589.402466 601.045227,575.683289 610.072144,562.304932   C600.888123,549.109436 592.020630,536.368835 582.716614,523.000977   C591.524353,523.000977 599.458801,522.897400 607.384949,523.106750   C608.650757,523.140198 610.285706,524.295898 611.057739,525.411682   C615.293640,531.533691 619.313843,537.804932 623.922791,544.806824   C627.829712,538.490479 631.516724,532.725525 634.987000,526.832886   C636.609192,524.078308 638.426208,522.731262 641.908508,522.893433   C649.369995,523.240967 656.858887,523.000000 665.122314,523.000000   C658.076965,532.926331 651.376770,542.403198 644.631165,551.847534   C642.645447,554.627625 640.307068,557.184998 638.594971,560.115906   C637.977234,561.173340 638.198914,563.374329 638.923889,564.463440   C647.530334,577.391907 656.304565,590.208740 665.665466,603.983093   C656.698242,603.983093 648.506653,604.109436 640.328125,603.839417   C639.174011,603.801392 637.856384,601.983948 637.002014,600.726746   C632.544861,594.167786 628.213013,587.523743 623.693481,580.691467   C618.989624,587.940918 614.671997,594.788452 610.101135,601.462646   C609.272461,602.672729 607.406250,603.172302 605.563843,603.999939  z"/>
<path fill="#9bc8fa" opacity="1.000000" stroke="none" d=" M1158.070557,498.000000   C1163.526611,498.000000 1168.491089,498.000000 1173.904785,498.000000   C1173.904785,506.371124 1173.904785,514.434631 1173.904785,522.947327   C1180.409668,522.947327 1186.480347,522.947327 1192.767334,522.947327   C1192.767334,529.338135 1192.767334,535.280273 1192.767334,541.683228   C1186.857300,541.683228 1180.792847,541.683228 1174.000000,541.683228   C1174.000000,549.864136 1174.000000,557.607117 1174.000000,565.350098   C1174.000000,568.179993 1173.933350,571.011780 1174.013184,573.839417   C1174.220093,581.169739 1178.599731,584.589111 1185.727295,582.985962   C1187.297119,582.632874 1188.815796,582.052429 1190.674072,581.479187   C1192.622681,587.757568 1194.625366,594.210205 1196.766724,601.109131   C1190.525391,604.071289 1183.881958,605.420837 1177.008423,604.933777   C1167.839600,604.284058 1159.320923,601.351135 1155.268799,592.451782   C1152.794800,587.018982 1151.540649,580.709412 1151.179199,574.706787   C1150.540039,564.094055 1151.000000,553.415100 1151.000000,542.305481   C1146.511353,542.305481 1142.111572,542.305481 1137.356079,542.305481   C1137.356079,535.802002 1137.356079,529.738464 1137.356079,523.211365   C1141.582520,523.211365 1145.983521,523.211365 1150.835205,523.211365   C1150.835205,514.706116 1150.835205,506.639343 1150.835205,498.000000   C1153.379150,498.000000 1155.479004,498.000000 1158.070557,498.000000  z"/>
<path fill="#9bc8fa" opacity="1.000000" stroke="none" d=" M1571.000000,575.000000   C1571.000000,584.798645 1571.000000,594.097351 1571.000000,603.696777   C1563.684937,603.696777 1556.626343,603.696777 1549.282227,603.696777   C1549.282227,564.665710 1549.282227,525.636597 1549.282227,486.303406   C1556.314697,486.303406 1563.373291,486.303406 1571.000000,486.303406   C1571.000000,515.701660 1571.000000,545.100830 1571.000000,575.000000  z"/>
<path fill="#9bc8fa" opacity="1.000000" stroke="none" d=" M1031.000000,559.000000   C1031.000000,574.126953 1031.000000,588.753906 1031.000000,603.689697   C1023.699524,603.689697 1016.640930,603.689697 1009.289185,603.689697   C1009.289185,564.679871 1009.289185,525.650757 1009.289185,486.310486   C1016.299988,486.310486 1023.358582,486.310486 1031.000000,486.310486   C1031.000000,510.358246 1031.000000,534.429138 1031.000000,559.000000  z"/>
<path fill="#9bc8fa" opacity="1.000000" stroke="none" d=" M784.000000,569.000000   C784.000000,580.796692 784.000000,592.093323 784.000000,603.694092   C776.690369,603.694092 769.631775,603.694092 762.284790,603.694092   C762.284790,564.670959 762.284790,525.641846 762.284790,486.306030   C769.309143,486.306030 776.367798,486.306030 784.000000,486.306030   C784.000000,513.698059 784.000000,541.098999 784.000000,569.000000  z"/>
<path fill="#9bc8fa" opacity="1.000000" stroke="none" d=" M1610.000000,568.000000   C1610.000000,580.129700 1610.000000,591.759460 1610.000000,603.693726   C1602.691284,603.693726 1595.632690,603.693726 1588.285156,603.693726   C1588.285156,564.671936 1588.285156,525.642822 1588.285156,486.306488   C1595.307739,486.306488 1602.366211,486.306488 1610.000000,486.306488   C1610.000000,513.364075 1610.000000,540.432068 1610.000000,568.000000  z"/>
<path fill="#9bc8fa" opacity="1.000000" stroke="none" d=" M572.000000,583.999756   C572.000000,590.799194 572.000000,597.098694 572.000000,603.697571   C564.685974,603.697571 557.629944,603.697571 550.284790,603.697571   C550.284790,577.002625 550.284790,550.304504 550.284790,523.302734   C557.313477,523.302734 564.369568,523.302734 572.000000,523.302734   C572.000000,543.363647 572.000000,563.431702 572.000000,583.999756  z"/>
<path fill="#9bc8fa" opacity="1.000000" stroke="none" d=" M1213.184570,523.000610   C1219.621460,523.000000 1225.573853,523.000000 1231.759033,523.000000   C1231.759033,550.089050 1231.759033,576.789856 1231.759033,603.745605   C1224.584106,603.745605 1217.528687,603.745605 1210.000000,603.745605   C1210.000000,599.836426 1210.000000,596.055847 1210.000000,592.275330   C1210.000000,570.642151 1209.977539,549.008972 1210.040649,527.375977   C1210.046021,525.554138 1208.806519,522.611633 1213.184570,523.000610  z"/>
<path fill="#ebf0f4" opacity="1.000000" stroke="none" d=" M1442.051025,49.452343   C1436.968384,49.193985 1431.858765,49.513702 1427.470215,47.887695   C1418.151611,44.435158 1416.329468,36.343456 1417.021362,27.415838   C1417.593018,20.039968 1422.408813,15.872256 1428.559692,12.898035   C1438.798950,7.946916 1449.727783,13.694664 1453.637329,21.170347   C1459.504517,32.390057 1454.102783,42.416077 1446.004517,47.962276   C1444.991089,48.656273 1443.578491,48.767494 1442.051025,49.452343  z"/>
<path fill="#9bc8fa" opacity="1.000000" stroke="none" d=" M548.166809,504.453766   C545.595337,497.653229 547.268127,490.110596 551.875793,486.637665   C556.495300,483.155792 565.024780,483.077606 569.872925,486.352722   C576.713440,490.973755 576.356445,500.841644 572.676514,506.679443   C569.239868,512.131165 559.622559,513.915710 553.786560,510.130737   C551.698730,508.776642 550.130737,506.621002 548.166809,504.453766  z"/>
<path fill="#9bc8fa" opacity="1.000000" stroke="none" d=" M1208.955200,505.804565   C1204.523560,498.449432 1207.632446,489.239349 1212.581055,486.141907   C1219.349854,481.905396 1229.267456,483.787659 1233.649292,490.160126   C1236.458374,494.245422 1235.240112,504.105164 1231.436035,508.071899   C1227.214233,512.474060 1219.182861,513.548889 1213.840454,510.236603   C1212.079102,509.144562 1210.625122,507.557068 1208.955200,505.804565  z"/>
<path fill="none" opacity="1.000000" stroke="none" d=" M834.258606,239.672882   C827.731750,228.368179 824.461060,216.561691 823.947205,203.867569   C823.384583,189.967880 824.883789,176.366348 831.171997,163.919952   C836.670715,153.036285 843.661926,143.198929 854.016602,135.872177   C868.417725,125.682220 884.356812,121.124779 901.492004,123.213020   C924.968079,126.074028 943.386902,137.487671 955.386536,158.674515   C964.516174,174.794144 966.445190,192.160934 964.778198,209.884293   C963.368164,224.874771 957.409424,238.404114 947.467407,250.183807   C936.386719,263.312469 922.218445,271.197479 905.758972,273.737518   C883.441040,277.181641 863.134338,271.543640 846.794800,255.145187   C842.222290,250.556168 838.558533,245.061584 834.258606,239.672882  z"/>
<path fill="none" opacity="1.000000" stroke="none" d=" M653.933105,129.992432   C665.441895,139.420288 673.295776,150.813354 676.091614,165.714722   C632.659302,165.714722 589.458862,165.714722 546.239563,165.714722   C560.390564,115.925636 618.324219,103.927330 653.933105,129.992432  z"/>
<path fill="none" opacity="1.000000" stroke="none" d=" M1145.008911,217.968903   C1150.485107,216.960190 1155.511719,215.421127 1160.614502,215.102310   C1177.568237,214.042984 1194.238525,215.633987 1210.202515,221.986038   C1213.187256,223.173721 1216.071777,224.744934 1219.158203,225.516541   C1224.452393,226.840042 1224.629028,230.674591 1223.923950,234.687271   C1221.297852,249.629578 1215.249512,262.895355 1203.499023,272.914307   C1192.951904,281.907196 1180.922119,287.432983 1166.891602,289.187988   C1156.501343,290.487640 1146.910767,288.959656 1137.533203,284.975647   C1112.076050,274.160339 1108.172729,246.774490 1124.715942,229.708099   C1130.324341,223.922333 1137.099854,220.425476 1145.008911,217.968903  z"/>
<path fill="none" opacity="1.000000" stroke="none" d=" M1359.073975,91.000000   C1375.355957,89.670677 1388.980225,104.724586 1389.182251,120.837639   C1389.370728,135.858063 1379.326782,148.087112 1368.299194,151.414108   C1351.133911,156.592834 1335.127441,144.898376 1331.908325,129.027603   C1329.715698,118.217575 1331.885864,108.792763 1338.915283,100.473808   C1344.026611,94.424782 1350.495117,90.933884 1359.073975,91.000000  z"/>
<path fill="none" opacity="1.000000" stroke="none" d=" M1452.000000,118.000000   C1452.000000,102.195091 1452.000000,86.890182 1452.000000,69.975594   C1457.869507,78.455482 1462.914185,85.800644 1468.019043,93.103615   C1473.862061,101.462601 1479.815674,109.745262 1485.559082,118.171661   C1486.267578,119.211281 1486.647583,121.379822 1486.051636,122.269188   C1475.431519,138.116577 1464.638672,153.848251 1453.860474,169.589355   C1453.711548,169.806870 1453.273682,169.826599 1452.000000,170.297668   C1452.000000,152.800140 1452.000000,135.650070 1452.000000,118.000000  z"/>
<path fill="none" opacity="1.000000" stroke="none" d=" M1628.841309,97.346466   C1630.463745,100.479111 1631.841675,103.332260 1633.613159,107.000000   C1624.274292,107.000000 1615.720825,107.000000 1607.167236,107.000000   C1598.541992,107.000000 1589.916870,107.000000 1581.214844,107.000000   C1586.125854,87.904205 1612.655273,78.982841 1628.841309,97.346466  z"/>
<path fill="none" opacity="1.000000" stroke="none" d=" M304.457642,540.232788   C314.458710,540.306885 322.067810,544.179993 325.632385,553.383789   C329.066681,562.251343 327.659088,571.221985 321.131866,577.996948   C315.631622,583.705994 307.952057,585.801270 300.010071,582.897888   C292.957031,580.319580 288.673950,574.848145 287.070068,567.606995   C284.340759,555.285156 291.170715,545.684570 299.063904,542.010498   C300.641113,541.276306 302.402130,540.937134 304.457642,540.232788  z"/>
<path fill="none" opacity="1.000000" stroke="none" d=" M1649.009766,556.356445   C1652.024048,551.960388 1654.232788,546.779602 1658.152954,544.219421   C1670.026855,536.464844 1683.811523,542.352173 1688.501831,555.865051   C1693.414917,570.019775 1682.712769,587.311890 1665.159424,585.043579   C1657.134521,584.006531 1648.264160,574.039734 1648.060547,564.983459   C1647.999023,562.253967 1648.657959,559.508240 1649.009766,556.356445  z"/>
<path fill="none" opacity="1.000000" stroke="none" d=" M472.000000,562.123779   C473.439575,549.111633 482.080658,539.705017 495.084534,541.071594   C507.030579,542.326904 513.938110,551.598633 513.709717,563.428894   C513.475525,575.557495 505.370178,585.824036 490.725098,585.068481   C482.436981,584.640869 471.529968,575.488037 472.000000,562.123779  z"/>
<path fill="none" opacity="1.000000" stroke="none" d=" M384.222168,574.447571   C389.878693,566.632935 397.854675,565.637451 408.037598,568.546936   C416.389526,570.933167 416.483734,571.404236 412.217224,579.326599   C407.781982,587.562256 395.260712,590.976868 387.595428,585.790649   C383.760559,583.196045 382.711792,579.273071 384.222168,574.447571  z"/>
<path fill="none" opacity="1.000000" stroke="none" d=" M692.661560,551.988831   C691.383423,549.486755 694.073181,544.227234 697.482666,542.219238   C705.438599,537.533875 713.702637,537.210754 721.362671,542.342773   C724.320801,544.324646 725.961182,548.273438 728.695190,551.998047   C715.956909,551.998047 704.525818,551.998047 692.661560,551.988831  z"/>
<path fill="none" opacity="1.000000" stroke="none" d=" M199.986511,546.079102   C207.465622,535.182739 230.321716,536.214783 233.502136,551.742432   C221.466293,551.742432 209.478577,551.742432 196.572632,551.742432   C197.835495,549.753113 198.882706,548.103455 199.986511,546.079102  z"/>
<path fill="none" opacity="1.000000" stroke="none" d=" M970.766724,548.397339   C976.540283,558.000366 977.027283,567.159912 971.130188,576.666687   C966.365479,584.347961 957.429565,586.012207 950.042969,584.842407   C942.831055,583.700378 935.976562,575.351562 934.979736,567.967834   C933.039673,553.597717 940.204834,543.893066 949.774475,541.615662   C958.152161,539.621887 964.793762,542.214539 970.766724,548.397339  z"/>
<path fill="none" opacity="1.000000" stroke="none" d=" M1283.650635,541.152466   C1297.124146,539.493103 1305.340820,547.419983 1307.304688,555.825073   C1311.079712,571.980713 1302.814453,586.591003 1284.361816,585.005432   C1277.547241,584.419800 1269.749634,577.259827 1268.199463,569.293396   C1265.953491,557.750183 1269.519043,545.390503 1283.650635,541.152466  z"/>
</svg>