<?xml version="1.0" encoding="UTF-8"?>
<svg version="1.1" xmlns="http://www.w3.org/2000/svg" width="1745" height="650">
<path d="M0 0 C0.64066406 0.48984375 1.28132812 0.9796875 1.94140625 1.484375 C6.43727981 5.06498124 9.77061005 9.33307624 13.203125 13.92578125 C14.91118221 16.25372043 14.91118221 16.25372043 18 17 C18 7.1 18 -2.8 18 -13 C41.43 -13 64.86 -13 89 -13 C89.04417856 20.29160697 89.08107303 53.58318525 89.10213066 86.87481277 C89.10463176 90.81465388 89.10722043 94.75449492 89.10986328 98.69433594 C89.11065021 99.87075007 89.11065021 99.87075007 89.11145304 101.07093015 C89.12013055 113.73182044 89.13588573 126.39269236 89.15430559 139.05357179 C89.17307881 152.06689003 89.18413233 165.08019872 89.18817699 178.09352994 C89.19090673 186.10866495 89.19949469 194.12374804 89.21583293 202.13886705 C89.22776061 208.30854272 89.22889278 214.47817968 89.22621536 220.6478653 C89.22676119 223.16150734 89.23068007 225.67515153 89.23841095 228.18878174 C89.37466236 274.81527125 80.5134825 317.21556639 47.375 352 C23.14893852 375.51900285 -11.17332355 389.01815382 -44.86328125 389.203125 C-45.69474167 389.20882507 -46.52620209 389.21452515 -47.38285828 389.22039795 C-49.13844556 389.22979484 -50.89405005 389.23636064 -52.6496582 389.24023438 C-55.26742647 389.2498347 -57.88437198 389.28086461 -60.50195312 389.3125 C-94.02853508 389.52339879 -128.40399655 379.34370598 -154 357 C-154.84304688 356.26652344 -155.68609375 355.53304688 -156.5546875 354.77734375 C-159.06804872 352.55045987 -161.53777212 350.28315676 -164 348 C-164.66644531 347.41089844 -165.33289063 346.82179688 -166.01953125 346.21484375 C-175.07692869 337.82153248 -181.95868366 326.83611028 -187.25 315.75 C-187.5497876 315.1305249 -187.8495752 314.5110498 -188.15844727 313.87280273 C-189.20581904 311.54863489 -190.01042564 309.56152737 -189.96266174 306.98895264 C-188.40907638 303.77909442 -185.89704755 303.33733717 -182.64428711 302.06738281 C-181.64920387 301.67148705 -181.64920387 301.67148705 -180.63401794 301.26759338 C-178.43732967 300.39789133 -176.23270472 299.5505667 -174.02734375 298.703125 C-172.50366243 298.10485283 -170.98052059 297.50520503 -169.457901 296.90423584 C-165.44693257 295.32540871 -161.42889333 293.76541175 -157.40911865 292.20916748 C-153.30934455 290.61815748 -149.21650173 289.00952591 -145.12304688 287.40234375 C-137.08872609 284.25089874 -129.04685344 281.11930437 -121 278 C-118.63582744 281.05641267 -117.02594226 283.9722357 -115.4375 287.5 C-110.06626095 298.36183897 -102.47091531 306.90241609 -92 313 C-91.09765625 313.53238281 -90.1953125 314.06476563 -89.265625 314.61328125 C-71.0086988 324.55590457 -50.81242208 325.45718263 -31 320 C-22.28412138 317.32045624 -15.15758697 313.63281932 -8 308 C-6.75863281 307.06800781 -6.75863281 307.06800781 -5.4921875 306.1171875 C8.38733908 294.32611633 14.76753263 275.47444571 17 258 C17.14171662 255.36063332 17.25204592 252.73832994 17.31640625 250.09765625 C17.3475779 249.01380898 17.3475779 249.01380898 17.37937927 247.9080658 C17.44415426 245.6262963 17.5034203 243.34442333 17.5625 241.0625 C17.60575397 239.50454709 17.64937031 237.9466042 17.69335938 236.38867188 C17.79976039 232.59255078 17.90122499 228.79632686 18 225 C14.20247162 227.18621871 11.68987858 229.25356748 8.875 232.625 C-7.8853623 251.5559666 -31.38807119 261.60840413 -56.43896484 263.22143555 C-93.2304906 264.43505389 -125.22114366 254.99630922 -152.58203125 229.76171875 C-180.57057685 203.01639555 -195.89576411 165.99106739 -197.28125 127.6015625 C-198.19499154 84.87145452 -185.10957612 46.34957104 -155.78515625 14.79394531 C-145.6809492 4.27925485 -133.96382723 -3.44703813 -121 -10 C-119.88238281 -10.56589844 -118.76476562 -11.13179687 -117.61328125 -11.71484375 C-80.62114293 -28.91947139 -32.05856878 -26.0852628 0 0 Z M-105.75 69.375 C-120.96477377 88.90241211 -125.48321872 111.18044874 -122.71142578 135.53564453 C-120.50756499 149.5427329 -114.48018327 162.42150282 -105 173 C-103.92492187 174.23169922 -103.92492187 174.23169922 -102.828125 175.48828125 C-90.84947803 188.38685699 -74.31501594 195.70386104 -56.8125 196.9375 C-36.82653966 197.60174502 -18.72876284 190.96081434 -3.7890625 177.69140625 C10.8255819 163.58847909 17.92240985 144.37628186 18.47094727 124.41650391 C18.65293079 103.01585352 13.6772768 83.22935664 -1 67 C-1.52980469 66.39027344 -2.05960938 65.78054687 -2.60546875 65.15234375 C-13.90284274 52.94259277 -31.04469254 45.64430401 -47.48828125 44.6796875 C-70.32875349 43.87113385 -90.71801938 51.58715626 -105.75 69.375 Z " fill="#231F20" transform="translate(946,77)"/>
<path d="M0 0 C8.49386793 7.84959622 14.16660987 16.20222641 19.5234375 26.33203125 C20.52310547 25.11580078 20.52310547 25.11580078 21.54296875 23.875 C41.91818553 -0.71281434 65.46224367 -18.1448008 98.203125 -21.3515625 C126.58324154 -23.64999833 154.8041361 -19.41887387 177.24609375 -0.6640625 C198.61025518 18.06164332 208.56122459 46.49231884 210.5234375 74.33203125 C210.66677988 80.36414851 210.6499873 86.39448282 210.63696289 92.42797852 C210.63668051 94.26179503 210.63683974 96.09561165 210.6374054 97.9294281 C210.6376914 102.8874247 210.63182657 107.84539693 210.62483144 112.80338788 C210.61856504 117.99237267 210.6179915 123.18135807 210.61680603 128.37034607 C210.61370239 138.18735785 210.60550206 148.00435844 210.59545654 157.8213653 C210.58426534 169.00152906 210.57877738 180.18169337 210.57376111 191.36186135 C210.56331863 214.3519256 210.54498519 237.34197454 210.5234375 260.33203125 C186.1034375 260.33203125 161.6834375 260.33203125 136.5234375 260.33203125 C136.5140918 255.20542969 136.50474609 250.07882812 136.49511719 244.796875 C136.46129322 227.82550414 136.40591306 210.85425361 136.33953476 193.88298035 C136.29982723 183.59711466 136.2673928 173.31132456 136.25244141 163.02539062 C136.23938178 154.05387859 136.21230783 145.08253346 136.16882443 136.11111546 C136.14630612 131.36649829 136.130521 126.62208623 136.13155365 121.87741089 C136.132306 117.39901846 136.11412747 112.92107779 136.08226967 108.44280243 C136.07384638 106.81118587 136.07196833 105.17951817 136.07763481 103.54788971 C136.12454383 87.94595711 134.30968905 70.72104694 123.4609375 58.58203125 C113.16884822 49.25964631 100.42831369 46.8857676 86.96875 47.4921875 C75.29570797 48.93382219 65.17193213 53.36503151 56.5234375 61.33203125 C55.50830078 62.26595703 55.50830078 62.26595703 54.47265625 63.21875 C37.59254943 80.42662589 33.24254612 107.11610834 33.20458984 130.1184082 C33.1952649 131.54888458 33.18509254 132.97935565 33.17414856 134.40982056 C33.14712319 138.24982619 33.13178187 142.08979574 33.11872053 145.92987084 C33.10296816 149.95908204 33.07621734 153.98822078 33.0506897 158.01737976 C33.00411431 165.62781067 32.96726822 173.23825554 32.93401682 180.84875506 C32.88845313 191.14649992 32.82765866 201.44415452 32.76776886 211.74182415 C32.67396837 227.93851435 32.60034346 244.13523161 32.5234375 260.33203125 C8.1034375 260.33203125 -16.3165625 260.33203125 -41.4765625 260.33203125 C-41.51394531 248.23417969 -41.55132812 236.13632812 -41.58984375 223.671875 C-41.62013119 215.99282723 -41.65116363 208.31379434 -41.68554688 200.63476562 C-41.7399445 188.45501072 -41.7913613 176.27529713 -41.82299805 164.09545898 C-41.84605742 155.22322765 -41.87954333 146.35110558 -41.92526406 137.47896105 C-41.94908971 132.78638752 -41.96788802 128.0939215 -41.97417641 123.40128899 C-41.98027588 118.97303098 -42.00044847 114.54504766 -42.03083801 110.11689186 C-42.03954108 108.50259187 -42.04335713 106.88825587 -42.04157066 105.27393341 C-42.02880277 88.39357047 -43.71950745 71.53444904 -55.4765625 58.33203125 C-66.85636706 49.42451649 -79.38352119 46.47769353 -93.72265625 47.58203125 C-102.67756518 48.85967431 -110.21232627 51.92249363 -117.4765625 57.33203125 C-118.07984375 57.76644531 -118.683125 58.20085937 -119.3046875 58.6484375 C-135.26483869 71.18406806 -141.44845204 93.09179786 -143.7966671 112.37203884 C-145.12730243 124.95334441 -144.8363761 137.68674291 -144.88127947 150.32580113 C-144.89709761 154.20417672 -144.92382628 158.08247823 -144.9493103 161.96080017 C-144.99577204 169.27714457 -145.03267198 176.59350343 -145.06598318 183.90991825 C-145.11165265 193.81624095 -145.17240426 203.72247105 -145.23223114 213.62871647 C-145.32585856 229.19644123 -145.39960429 244.76419448 -145.4765625 260.33203125 C-169.5665625 260.33203125 -193.6565625 260.33203125 -218.4765625 260.33203125 C-218.4765625 170.24203125 -218.4765625 80.15203125 -218.4765625 -12.66796875 C-195.7065625 -12.66796875 -172.9365625 -12.66796875 -149.4765625 -12.66796875 C-149.4765625 -0.78796875 -149.4765625 11.09203125 -149.4765625 23.33203125 C-145.58692913 21.38721457 -144.59739347 20.54052046 -142.1640625 17.20703125 C-141.55175781 16.39878906 -140.93945312 15.59054688 -140.30859375 14.7578125 C-139.40173828 13.55705078 -139.40173828 13.55705078 -138.4765625 12.33203125 C-124.26648211 -6.17328755 -101.28681022 -17.14877366 -78.6640625 -20.98046875 C-49.91621412 -24.42234341 -22.25951362 -19.15884823 0 0 Z " fill="#231F20" transform="translate(252.4765625,76.66796875)"/>
<path d="M0 0 C13.48576594 12.22345393 23.02611711 26.9646011 30.3515625 43.54345703 C30.62838867 44.16623535 30.90521484 44.78901367 31.19042969 45.43066406 C41.5219505 69.25298256 45.63751509 98.23350631 42.9140625 124.04345703 C42.83285156 124.85814453 42.75164062 125.67283203 42.66796875 126.51220703 C42.3515625 128.54345703 42.3515625 128.54345703 41.3515625 130.54345703 C-25.9684375 130.54345703 -93.2884375 130.54345703 -162.6484375 130.54345703 C-156.66071291 153.29681049 -149.74473909 169.84714827 -129.6484375 182.54345703 C-110.02920024 193.3719491 -87.13631085 195.51497541 -65.6484375 189.54345703 C-57.3753553 186.82885193 -50.46845712 182.92531766 -43.6484375 177.54345703 C-42.87628906 176.93630859 -42.10414063 176.32916016 -41.30859375 175.70361328 C-33.8631387 169.4799765 -28.53808796 161.86786196 -23.6484375 153.54345703 C-19.68640903 154.16289403 -16.54257509 155.40182199 -12.95605469 157.1796875 C-11.83849792 157.73050995 -10.72094116 158.2813324 -9.56951904 158.84884644 C-8.36123763 159.45235374 -7.1531738 160.05629685 -5.9453125 160.66064453 C-4.69943722 161.28003022 -3.45344338 161.89917747 -2.20733643 162.51809692 C0.39706719 163.81358912 2.99905924 165.11378309 5.59960938 166.41699219 C8.93564473 168.08796753 12.27877194 169.74418111 15.62401199 171.39663506 C18.1959037 172.66967687 20.76316803 173.95183256 23.32918549 175.23666763 C24.56042144 175.85143788 25.79325741 176.46301429 27.02768707 177.07134628 C28.74877528 177.92085772 30.46295628 178.78432027 32.17675781 179.6484375 C33.15429016 180.13617645 34.13182251 180.62391541 35.13897705 181.12643433 C37.3515625 182.54345703 37.3515625 182.54345703 38.3515625 185.54345703 C30.06497672 202.71493803 14.35969914 219.16144736 -0.6484375 230.54345703 C-1.66035156 231.34396484 -2.67226563 232.14447266 -3.71484375 232.96923828 C-18.07595482 244.03602107 -35.01473432 251.52027393 -52.6484375 255.54345703 C-53.30231445 255.70426758 -53.95619141 255.86507813 -54.62988281 256.03076172 C-66.34838081 258.81268611 -78.23277253 258.85425943 -90.2109375 258.91845703 C-90.98691284 258.92640289 -91.76288818 258.93434875 -92.56237793 258.9425354 C-107.53384025 259.06013613 -122.23955474 257.37564721 -136.5859375 252.91845703 C-137.81606567 252.53995605 -137.81606567 252.53995605 -139.07104492 252.15380859 C-170.04963107 242.19185813 -196.10641269 221.869752 -213.6484375 194.54345703 C-214.3290625 193.48642578 -215.0096875 192.42939453 -215.7109375 191.34033203 C-235.96242527 157.95702016 -240.69123537 115.57346294 -232.03027344 77.85107422 C-222.6517333 39.80450746 -200.28379767 7.63265876 -166.671875 -12.92529297 C-115.81605595 -43.05039264 -44.92660414 -39.69670028 0 0 Z M-144.8984375 50.91845703 C-150.6322822 57.65803659 -158.6484375 68.27514543 -158.6484375 77.54345703 C-115.7484375 77.54345703 -72.8484375 77.54345703 -28.6484375 77.54345703 C-31.94502568 61.06051613 -39.12059131 49.55797127 -52.6484375 39.60595703 C-82.28250759 20.42548017 -120.91195051 25.21218418 -144.8984375 50.91845703 Z " fill="#231F20" transform="translate(703.6484375,87.45654296875)"/>
<path d="M0 0 C0.84175781 0.76957031 1.68351562 1.53914063 2.55078125 2.33203125 C3.40285156 3.09128906 4.25492188 3.85054687 5.1328125 4.6328125 C25.83538055 24.06333336 33.96369288 52.75214507 35.55078125 80.33203125 C35.68448931 86.14146859 35.67774742 91.94811594 35.66430664 97.75878906 C35.66402401 99.48467507 35.66418397 101.2105612 35.66474915 102.93644714 C35.66503418 107.5864254 35.65918525 112.23637747 35.65217519 116.88634968 C35.64589244 121.75900957 35.64533397 126.63167017 35.64414978 131.5043335 C35.64105091 140.7156327 35.63285711 149.92691993 35.62280029 159.13821387 C35.61159415 169.63164033 35.60611739 180.12506737 35.60110486 190.61849833 C35.59067319 212.18968412 35.57234579 233.76085351 35.55078125 255.33203125 C11.46078125 255.33203125 -12.62921875 255.33203125 -37.44921875 255.33203125 C-37.44921875 245.76203125 -37.44921875 236.19203125 -37.44921875 226.33203125 C-42.2011182 228.23279103 -43.13047674 228.71809574 -46.07421875 232.39453125 C-60.64253871 249.38184463 -80.52243485 259.80182461 -102.44921875 263.33203125 C-107.58331987 263.72282804 -112.67721813 263.76261234 -117.82421875 263.70703125 C-118.50275909 263.70237854 -119.18129944 263.69772583 -119.88040161 263.69293213 C-146.16318323 263.48186892 -170.40905933 255.67587831 -190.44921875 238.33203125 C-191.27550781 237.69523437 -192.10179687 237.0584375 -192.953125 236.40234375 C-208.95258403 223.13205692 -218.39791607 200.54949397 -220.44921875 180.33203125 C-222.19627233 155.38208062 -216.48223334 131.36379388 -199.89331055 112.10864258 C-181.17886717 91.19029645 -153.22533567 79.34052642 -125.44921875 77.33203125 C-95.04093283 75.92091884 -67.46167513 78.66121246 -38.44921875 88.33203125 C-37.83965917 72.66409231 -40.97632372 61.28764797 -51.44921875 49.33203125 C-66.89858285 36.6422582 -84.64753138 31.86104876 -104.44921875 33.33203125 C-125.37046949 35.98869801 -145.10460762 46.00324266 -158.3203125 62.6953125 C-158.69285156 63.23542969 -159.06539062 63.77554688 -159.44921875 64.33203125 C-164.11835189 62.75184661 -167.77407887 60.20887728 -171.76171875 57.39453125 C-173.19522188 56.39570326 -174.62881823 55.39700905 -176.0625 54.3984375 C-176.79162598 53.88812988 -177.52075195 53.37782227 -178.27197266 52.85205078 C-180.99753484 50.94923063 -183.73594722 49.06563909 -186.47705078 47.18530273 C-187.79036368 46.28412752 -189.1025428 45.38129774 -190.41357422 44.47680664 C-193.91828251 42.05969182 -197.43673016 39.66621504 -200.9765625 37.30078125 C-201.71455078 36.80384766 -202.45253906 36.30691406 -203.21289062 35.79492188 C-204.63303375 34.83922807 -206.05736315 33.88971787 -207.48632812 32.94726562 C-212.33675655 29.66941784 -212.33675655 29.66941784 -213.44921875 26.33203125 C-205.23419245 13.10175409 -191.39537102 2.5369054 -178.44921875 -5.66796875 C-177.39605469 -6.34472656 -176.34289063 -7.02148438 -175.2578125 -7.71875 C-127.04411165 -37.03404627 -44.20374425 -38.44088574 0 0 Z M-138.7265625 147.11328125 C-145.80807286 156.23413813 -147.12698043 165.06258216 -146.44921875 176.33203125 C-145.16601948 185.35672941 -139.03817202 191.47069579 -132.28125 197.15625 C-120.53644903 205.6493028 -105.99546164 207.6568109 -91.91992188 205.6640625 C-74.11372943 202.75623088 -58.24355994 192.77044748 -47.44921875 178.33203125 C-41.10367945 167.84221531 -36.73361575 156.73581656 -37.44921875 144.33203125 C-44.78321218 140.05007235 -52.12236785 137.32640231 -60.26171875 135.01953125 C-61.15656982 134.7654248 -62.0514209 134.51131836 -62.97338867 134.24951172 C-87.29433809 127.58294755 -120.26673415 127.40258157 -138.7265625 147.11328125 Z " fill="#231F20" transform="translate(1260.44921875,82.66796875)"/>
<path d="M0 0 C57.42 0 114.84 0 174 0 C174 57.42 174 114.84 174 174 C116.58 174 59.16 174 0 174 C0 116.58 0 59.16 0 0 Z " fill="#2B2E7E" transform="translate(1518,300)"/>
<path d="M0 0 C42.9 0 85.8 0 130 0 C130 42.9 130 85.8 130 130 C87.1 130 44.2 130 0 130 C0 87.1 0 44.2 0 0 Z " fill="#2B2E7E" transform="translate(1357,236)"/>
<path d="M0 0 C10.23 0 20.46 0 31 0 C31 53.79 31 107.58 31 163 C20.77 163 10.54 163 0 163 C-0.33 146.83 -0.66 130.66 -1 114 C-28.39 114 -55.78 114 -84 114 C-78.23051265 128.28420423 -78.23051265 128.28420423 -66.5 136.01953125 C-57.89880542 139.39281225 -49.1078048 138.76872701 -40.62109375 135.41015625 C-35.20025436 132.4937285 -31.37694016 128.06541024 -28 123 C-24.34430318 123.59458415 -21.43178554 124.60573511 -18.13671875 126.28515625 C-17.25048828 126.73310547 -16.36425781 127.18105469 -15.45117188 127.64257812 C-14.53916016 128.11115234 -13.62714844 128.57972656 -12.6875 129.0625 C-11.29047852 129.77116211 -11.29047852 129.77116211 -9.86523438 130.49414062 C-7.57401231 131.65737644 -5.2857876 132.82613132 -3 134 C-3 140.40873981 -6.94940613 144.25501861 -11 149 C-23.48887703 161.41154652 -37.70384643 166.11035637 -54.875 166.3125 C-71.21214062 166.24053682 -84.86738834 161.70560259 -96.8203125 150.2109375 C-97.53960938 149.48132813 -98.25890625 148.75171875 -99 148 C-99.57492187 147.43539062 -100.14984375 146.87078125 -100.7421875 146.2890625 C-112.28406006 134.02956056 -114.72023361 117.90170379 -114.28125 101.78125 C-113.54301327 86.05680775 -106.34765089 71.78853906 -94.91015625 61.03515625 C-81.41320784 49.88125856 -65.33360479 45.45576494 -48 47 C-33.19300793 49.23641756 -20.35893515 54.93393484 -11 67 C-6.19523227 74.70196502 -3.20419659 82.18321365 -1 91 C-0.67 60.97 -0.34 30.94 0 0 Z M-76.87109375 81.55078125 C-79.49500999 84.56948856 -82 87.86584005 -82 92 C-64.84 92 -47.68 92 -30 92 C-32.34028266 83.76072464 -32.34028266 83.76072464 -37.375 78.5625 C-38.12523437 77.92441406 -38.87546875 77.28632812 -39.6484375 76.62890625 C-52.28584904 67.87508464 -66.44659713 71.9629216 -76.87109375 81.55078125 Z " fill="#231F20" transform="translate(1662,14)"/>
<path d="M0 0 C12.84637213 9.66303358 21.33487206 24.07760534 23.71875 40.03125 C25.66129732 60.53591618 20.98931658 77.69689466 8.484375 93.97265625 C0.24620072 103.10537976 -13.01541491 109.55239595 -25.1953125 110.30859375 C-37.11873741 110.7701945 -47.77344077 109.39704848 -57.30859375 101.59375 C-59.81266415 99.23425641 -61.91511602 96.73641022 -64 94 C-63.92894547 94.65470779 -63.85789093 95.30941559 -63.78468323 95.98396301 C-63.07632299 103.01545779 -62.86718474 109.94818767 -62.90234375 117.01171875 C-62.9037587 118.10595657 -62.90517365 119.2001944 -62.90663147 120.32759094 C-62.91217469 123.78092322 -62.92471621 127.23418772 -62.9375 130.6875 C-62.94252235 133.04622301 -62.94708396 135.40494706 -62.95117188 137.76367188 C-62.9612694 143.50916093 -62.98085544 149.25450569 -63 155 C-73.23 155 -83.46 155 -94 155 C-94 102.2 -94 49.4 -94 -5 C-84.43 -5 -74.86 -5 -65 -5 C-64.67 -1.04 -64.34 2.92 -64 7 C-63.21625 5.96875 -62.4325 4.9375 -61.625 3.875 C-46.10789461 -14.07687368 -18.33702865 -12.28742243 0 0 Z M-55.8125 27.3125 C-63.03693068 36.18822912 -65.98609612 44.4690373 -65 56 C-63.61127097 64.44599744 -59.68539884 71.15797295 -53.046875 76.6015625 C-45.98135205 81.35827284 -39.22331213 82.61984275 -30.8046875 81.59375 C-22.19524234 79.77113765 -15.84824935 75.29166415 -11 68 C-6.15208109 59.72832827 -5.78677305 50.70784158 -7.47265625 41.38671875 C-10.1196195 32.2095228 -15.55401174 26.73836819 -23.73046875 22.12890625 C-34.82165079 16.61194995 -46.70535322 19.82440154 -55.8125 27.3125 Z " fill="#231F20" transform="translate(1395,70)"/>
<path d="M0 0 C10.23 0 20.46 0 31 0 C36.05828125 -0.06574219 36.05828125 -0.06574219 41.21875 -0.1328125 C45.46875 -0.1328125 45.46875 -0.1328125 47.48046875 -0.12207031 C48.8699321 -0.12408597 50.25945531 -0.145022 51.6484375 -0.18164062 C63.29509722 -0.46544912 63.29509722 -0.46544912 67.28930664 2.96777344 C69.12340683 5.55703206 70.55995488 8.174896 72 11 C73.08067068 12.62952156 74.18316938 14.24480984 75.30859375 15.84375 C76.35273464 17.39504504 77.39571309 18.94712315 78.4375 20.5 C78.97826172 21.29664062 79.51902344 22.09328125 80.07617188 22.9140625 C80.8409082 24.05488281 80.8409082 24.05488281 81.62109375 25.21875 C82.0792749 25.89873047 82.53745605 26.57871094 83.00952148 27.27929688 C84 29 84 29 84 31 C86.81763685 28.34486099 88.91969335 25.78217585 90.875 22.4453125 C91.38546875 21.58292969 91.8959375 20.72054687 92.421875 19.83203125 C93.20304687 18.49205078 93.20304687 18.49205078 94 17.125 C95.04030374 15.35596864 96.08193983 13.58772001 97.125 11.8203125 C97.80949219 10.64879639 97.80949219 10.64879639 98.5078125 9.45361328 C99.00023437 8.6439209 99.49265625 7.83422852 100 7 C100.53979492 5.92266602 101.07958984 4.84533203 101.63574219 3.73535156 C104.16253661 0.81195166 104.37164018 0.59438568 107.94238281 0.31884766 C109.52961394 0.31979351 111.11705072 0.35346589 112.703125 0.4140625 C113.95980988 0.42679703 113.95980988 0.42679703 115.24188232 0.43978882 C117.91257431 0.47332427 120.58022411 0.54859713 123.25 0.625 C125.06245633 0.65509972 126.87496008 0.68247552 128.6875 0.70703125 C133.1261686 0.77311526 137.56256895 0.87663258 142 1 C137.82481621 7.67951944 133.53375434 14.21112374 128.875 20.5625 C128.32585937 21.31772949 127.77671875 22.07295898 127.2109375 22.85107422 C125.47673957 25.23608904 123.73862421 27.61821047 122 30 C119.66292304 33.2056286 117.33042928 36.41453675 115 39.625 C114.20891846 40.70696655 114.20891846 40.70696655 113.40185547 41.81079102 C110.05599267 46.41977855 106.95351321 51.13029708 104 56 C113.0350849 69.31103703 122.14236557 82.56896519 131.34375 95.765625 C131.94445313 96.62865234 132.54515625 97.49167969 133.1640625 98.38085938 C134.44045662 100.2017578 135.72774438 102.01504887 137.0234375 103.82226562 C137.66539062 104.72138672 138.30734375 105.62050781 138.96875 106.546875 C139.55076172 107.35479492 140.13277344 108.16271484 140.73242188 108.99511719 C142 111 142 111 142 113 C112.88613755 117.82001749 112.88613755 117.82001749 104.04022217 111.62823486 C95.45759215 103.68999085 89.96989497 92.42640312 85 82 C82.51498541 85.03394815 80.22740738 88.06640623 78.16015625 91.3984375 C77.65419922 92.20796875 77.14824219 93.0175 76.62695312 93.8515625 C75.85254883 95.10066406 75.85254883 95.10066406 75.0625 96.375 C73.53170379 98.83967817 71.9984152 101.29661761 70.40844727 103.72363281 C68.97018014 105.91943295 68.97018014 105.91943295 68.08959961 108.14355469 C66.95377127 110.48829894 66.19783339 111.56601202 64 113 C58.46642157 113.92899194 53.02711492 113.69806869 47.4375 113.5 C45.9629444 113.47339343 44.4883285 113.44993525 43.01367188 113.4296875 C28.67570368 113.16065953 14.32437665 112.51158488 0 112 C0 75.04 0 38.08 0 0 Z M31 6 C31 39.33 31 72.66 31 107 C37.25100912 99.1862386 43.01692206 91.09879536 48.5 82.73046875 C50.56681796 79.607893 52.71696463 76.54842079 54.875 73.48828125 C55.56263428 72.50448486 56.25026855 71.52068848 56.95874023 70.50708008 C58.34930798 68.5194251 59.74972508 66.53862066 61.16040039 64.56518555 C61.79969482 63.64648682 62.43898926 62.72778809 63.09765625 61.78125 C63.68039307 60.95689453 64.26312988 60.13253906 64.86352539 59.28320312 C66.18508305 57.11685822 66.18508305 57.11685822 65.84375 54.94848633 C64.89764177 52.76362239 63.78810595 50.9810798 62.40234375 49.04296875 C61.85562012 48.27082031 61.30889648 47.49867187 60.74560547 46.703125 C60.14893066 45.87296875 59.55225586 45.0428125 58.9375 44.1875 C57.66729258 42.40021994 56.39779068 40.61243831 55.12890625 38.82421875 C54.45875488 37.88239746 53.78860352 36.94057617 53.09814453 35.97021484 C50.92744396 32.89728686 48.78607129 29.80573242 46.65234375 26.70703125 C45.93892822 25.67231689 45.2255127 24.63760254 44.49047852 23.5715332 C43.10159437 21.55496639 41.7152782 19.53662802 40.33178711 17.51635742 C39.69378174 16.59314697 39.05577637 15.66993652 38.3984375 14.71875 C37.83817871 13.90341797 37.27791992 13.08808594 36.70068359 12.24804688 C34.76339112 9.58031823 34.76339112 9.58031823 31 6 Z " fill="#231F20" transform="translate(1420,64)"/>
<path d="M0 0 C28.71 0 57.42 0 87 0 C87 28.71 87 57.42 87 87 C58.29 87 29.58 87 0 87 C0 58.29 0 29.58 0 0 Z " fill="#2B2E7E" transform="translate(1518,185)"/>
<path d="M0 0 C2.24628455 1.53670242 4.04056441 3.09352213 6 5 C6.33 3.02 6.66 1.04 7 -1 C14.26 -1 21.52 -1 29 -1 C29.04531224 9.25799402 29.08195141 19.51592079 29.10362434 29.77399254 C29.11402996 34.53800573 29.12812989 39.30194646 29.15087891 44.06591797 C29.17272272 48.66950816 29.18459282 53.27302897 29.18975449 57.87666702 C29.19342963 59.62679765 29.20060588 61.37692478 29.21146011 63.1270256 C29.30704987 79.18873108 28.32394592 93.58672595 17 106 C7.29294075 115.45618098 -3.48590338 117.61705089 -16.6315918 117.47070312 C-29.04283743 117.0289967 -39.52869821 112.88461487 -48.140625 103.72265625 C-51.31640752 99.8432959 -53.28393258 97.03899292 -54 92 C-50.89954577 90.65791246 -47.79407011 89.32786246 -44.6875 88 C-43.80642578 87.6184375 -42.92535156 87.236875 -42.01757812 86.84375 C-41.17001953 86.4828125 -40.32246094 86.121875 -39.44921875 85.75 C-38.27879028 85.24726562 -38.27879028 85.24726562 -37.0847168 84.734375 C-35 84 -35 84 -32 84 C-31.505 85.051875 -31.01 86.10375 -30.5 87.1875 C-27.88142253 91.64542428 -24.88994525 94.24641774 -20 96 C-13.84792825 96.94470016 -7.97393394 97.05239087 -2.4375 93.9375 C2.12029056 90.56242724 4.22055645 86.33833065 6 81 C6.06802967 79.27204648 6.08495645 77.54164635 6.0625 75.8125 C6.05347656 74.91144531 6.04445313 74.01039063 6.03515625 73.08203125 C6.02355469 72.39496094 6.01195312 71.70789063 6 71 C5.5875 71.39832031 5.175 71.79664063 4.75 72.20703125 C-3.33161368 79.62119023 -11.04613281 80.79211513 -21.73046875 80.41015625 C-30.43178423 79.79319256 -37.9841371 76.01166203 -44.25390625 70.015625 C-53.08877222 59.81698777 -56.4023837 48.03765901 -56.27734375 34.76953125 C-55.56016658 25.02198243 -52.13663212 16.55961928 -46 9 C-45.48695313 8.36320313 -44.97390625 7.72640625 -44.4453125 7.0703125 C-33.27808406 -5.3792771 -14.50963113 -7.4207754 0 0 Z M-29.5546875 24.96484375 C-33.43391512 30.42721561 -34.6750329 35.95588399 -33.56640625 42.59765625 C-31.76726281 49.33682065 -29.22131901 53.72150607 -23.4375 57.8125 C-17.92039259 60.50032156 -12.31141984 61.07860555 -6.43359375 59.1640625 C-0.20846407 56.39939984 3.20403237 53.21615129 6 47 C8.0309276 40.90721719 8.11355753 33.53748609 5.4375 27.625 C2.2673819 22.26705391 -1.82945651 18.8233096 -7.625 16.625 C-17.2968262 14.83392107 -23.32909833 17.4507024 -29.5546875 24.96484375 Z " fill="#2B2E7E" transform="translate(319,523)"/>
<path d="M0 0 C3.29521919 2.51707104 5.04802495 4.88879044 6.18359375 8.86328125 C6.89322266 8.19232422 6.89322266 8.19232422 7.6171875 7.5078125 C17.15276912 -1.20990247 24.97796409 -4.49344143 37.89453125 -4.34765625 C44.88244276 -3.89950041 50.44641606 -1.80188554 55.61328125 2.98046875 C60.63613059 9.0028901 63.31285512 16.13742413 63.29711914 23.89526367 C63.29700584 25.75685371 63.29700584 25.75685371 63.29689026 27.65605164 C63.29178366 29.01028483 63.28656766 30.36451762 63.28125 31.71875 C63.27938458 33.1045171 63.27796126 34.49028486 63.27696228 35.87605286 C63.27314685 39.52076035 63.26332488 43.1654279 63.2522583 46.81011963 C63.24202325 50.53030863 63.23746017 54.2505041 63.23242188 57.97070312 C63.22170173 65.26824947 63.20411282 72.56575467 63.18359375 79.86328125 C55.92359375 79.86328125 48.66359375 79.86328125 41.18359375 79.86328125 C41.16901123 78.2891748 41.15442871 76.71506836 41.1394043 75.09326172 C41.08136778 69.24488782 41.00413422 63.39689676 40.92114258 57.54882812 C40.88791861 55.019269 40.85987886 52.4896362 40.8371582 49.95996094 C40.80356671 46.32064458 40.75124621 42.68200191 40.6953125 39.04296875 C40.68892258 37.91462616 40.68253265 36.78628357 40.6759491 35.62374878 C40.55217048 28.9912178 40.06235886 24.1849333 35.55859375 18.98828125 C31.81764452 17.21625267 28.24475413 17.33198249 24.18359375 17.86328125 C19.48314185 19.8479165 16.4211121 23.04199507 14.36222839 27.73582458 C12.20920222 33.75930015 11.71524915 39.21978084 11.671875 45.5859375 C11.6449482 47.06506874 11.6449482 47.06506874 11.61747742 48.57408142 C11.56374847 51.69127255 11.52959935 54.80831389 11.49609375 57.92578125 C11.46288762 60.05275505 11.42839496 62.17970918 11.39257812 64.30664062 C11.30564664 69.4922046 11.24525794 74.67711053 11.18359375 79.86328125 C3.92359375 79.86328125 -3.33640625 79.86328125 -10.81640625 79.86328125 C-10.87248047 74.48015625 -10.87248047 74.48015625 -10.9296875 68.98828125 C-10.97595372 65.49652151 -11.02716899 62.00486679 -11.07885742 58.51318359 C-11.11202601 56.09430369 -11.14008283 53.6753479 -11.1628418 51.25634766 C-11.1965356 47.77083115 -11.24886065 44.2860051 -11.3046875 40.80078125 C-11.31107742 39.72650879 -11.31746735 38.65223633 -11.3240509 37.54541016 C-11.44505796 31.30709795 -12.13333367 26.52649986 -14.81640625 20.86328125 C-17.75948285 18.0933268 -20.33642314 17.64305342 -24.25390625 17.42578125 C-28.81569944 17.61522449 -31.40703215 18.69177046 -34.81640625 21.86328125 C-38.19938943 27.15461392 -39.90107077 32.26583631 -40.02172852 38.54003906 C-40.04167374 39.46069153 -40.06161896 40.38134399 -40.08216858 41.32989502 C-40.10723732 42.80821808 -40.10723732 42.80821808 -40.1328125 44.31640625 C-40.1535936 45.33176453 -40.17437469 46.3471228 -40.19578552 47.39324951 C-40.26111222 50.63319198 -40.32008762 53.87321473 -40.37890625 57.11328125 C-40.42210751 59.31120618 -40.46572232 61.50912303 -40.50976562 63.70703125 C-40.61755369 69.09236685 -40.71675298 74.47776437 -40.81640625 79.86328125 C-48.07640625 79.86328125 -55.33640625 79.86328125 -62.81640625 79.86328125 C-62.81640625 53.13328125 -62.81640625 26.40328125 -62.81640625 -1.13671875 C-55.88640625 -1.13671875 -48.95640625 -1.13671875 -41.81640625 -1.13671875 C-41.48640625 1.50328125 -41.15640625 4.14328125 -40.81640625 6.86328125 C-40.27113281 6.32058594 -39.72585937 5.77789063 -39.1640625 5.21875 C-28.40258332 -4.99085845 -13.28093521 -8.31129494 0 0 Z " fill="#2B2E7E" transform="translate(96.81640625,523.13671875)"/>
<path d="M0 0 C9.71857888 6.81417599 15.45478999 15.56561714 18.40234375 27.07421875 C20.41375112 40.62582192 18.80026632 54.33617022 10.546875 65.6171875 C4.11113786 73.16845241 -3.32531041 78.76345181 -13.2109375 80.6796875 C-27.06163769 81.57661952 -33.43202515 80.11123581 -44.2109375 70.6796875 C-44.2109375 84.8696875 -44.2109375 99.0596875 -44.2109375 113.6796875 C-51.4709375 113.6796875 -58.7309375 113.6796875 -66.2109375 113.6796875 C-66.2109375 75.3996875 -66.2109375 37.1196875 -66.2109375 -2.3203125 C-59.2809375 -2.3203125 -52.3509375 -2.3203125 -45.2109375 -2.3203125 C-44.8809375 -0.0103125 -44.5509375 2.2996875 -44.2109375 4.6796875 C-43.2621875 3.7721875 -42.3134375 2.8646875 -41.3359375 1.9296875 C-29.32608797 -8.18639334 -13.19450014 -7.87940115 0 0 Z M-40.0234375 22.4921875 C-44.55913652 29.10134893 -46.27753944 34.75289583 -45.2109375 42.6796875 C-43.16578165 50.25163357 -38.94241468 54.83493572 -32.3203125 58.81640625 C-27.54003524 60.77277898 -21.84856432 60.39207218 -16.92578125 59.0625 C-10.24901784 56.15508472 -6.56371259 50.85576815 -3.7734375 44.3046875 C-2.69023212 37.32403059 -3.3918197 30.74636976 -6.8359375 24.50390625 C-9.9944433 20.31350224 -14.26364714 17.32878429 -19.2109375 15.6796875 C-27.84425537 14.74428361 -33.84976752 16.31851752 -40.0234375 22.4921875 Z " fill="#2B2E7E" transform="translate(1692.2109375,524.3203125)"/>
<path d="M0 0 C9.71857888 6.81417599 15.45478999 15.56561714 18.40234375 27.07421875 C20.41375112 40.62582192 18.80026632 54.33617022 10.546875 65.6171875 C4.11113786 73.16845241 -3.32531041 78.76345181 -13.2109375 80.6796875 C-27.06163769 81.57661952 -33.43202515 80.11123581 -44.2109375 70.6796875 C-44.2109375 84.8696875 -44.2109375 99.0596875 -44.2109375 113.6796875 C-51.4709375 113.6796875 -58.7309375 113.6796875 -66.2109375 113.6796875 C-66.2109375 75.3996875 -66.2109375 37.1196875 -66.2109375 -2.3203125 C-59.2809375 -2.3203125 -52.3509375 -2.3203125 -45.2109375 -2.3203125 C-44.8809375 -0.0103125 -44.5509375 2.2996875 -44.2109375 4.6796875 C-43.2621875 3.7721875 -42.3134375 2.8646875 -41.3359375 1.9296875 C-29.32608797 -8.18639334 -13.19450014 -7.87940115 0 0 Z M-40.0234375 22.4921875 C-44.55913652 29.10134893 -46.27753944 34.75289583 -45.2109375 42.6796875 C-43.16578165 50.25163357 -38.94241468 54.83493572 -32.3203125 58.81640625 C-27.54003524 60.77277898 -21.84856432 60.39207218 -16.92578125 59.0625 C-10.24901784 56.15508472 -6.56371259 50.85576815 -3.7734375 44.3046875 C-2.69023212 37.32403059 -3.3918197 30.74636976 -6.8359375 24.50390625 C-9.9944433 20.31350224 -14.26364714 17.32878429 -19.2109375 15.6796875 C-27.84425537 14.74428361 -33.84976752 16.31851752 -40.0234375 22.4921875 Z " fill="#2B2E7E" transform="translate(516.2109375,524.3203125)"/>
<path d="M0 0 C7.72942379 6.7325735 10.40852199 14.78421807 11.22665405 24.90539551 C11.31244019 28.24728637 11.307075 31.57532341 11.26171875 34.91796875 C11.25747391 36.12177185 11.25322906 37.32557495 11.24885559 38.56585693 C11.23222295 42.36575836 11.19459952 46.16510586 11.15625 49.96484375 C11.14118325 52.55988811 11.12749836 55.15494088 11.11523438 57.75 C11.08236996 64.07182413 11.03069536 70.39324042 10.96875 76.71484375 C3.70875 76.71484375 -3.55125 76.71484375 -11.03125 76.71484375 C-11.52625 72.75484375 -11.52625 72.75484375 -12.03125 68.71484375 C-12.5159375 69.18535156 -13.000625 69.65585937 -13.5 70.140625 C-21.41392732 77.49144596 -27.5617528 79.39281635 -38.42578125 79.125 C-46.60331022 78.19472856 -54.12267768 74.9519623 -59.62890625 68.71875 C-64.56316571 61.66784442 -66.2091392 54.21507506 -65.03125 45.71484375 C-63.26398267 38.56211679 -60.00049707 33.09850956 -54.03125 28.71484375 C-46.28864169 24.42502023 -39.56915147 23.51335189 -30.84375 23.46484375 C-29.93560547 23.44421875 -29.02746094 23.42359375 -28.09179688 23.40234375 C-21.86614081 23.36669218 -16.79672194 24.36506173 -11.03125 26.71484375 C-12.68725932 20.5014661 -12.68725932 20.5014661 -16.28125 15.27734375 C-22.58975302 11.69296704 -28.07182397 11.17537291 -35.03125 12.71484375 C-39.73167723 14.52270038 -42.63809298 17.02229053 -46.03125 20.71484375 C-50.3885726 19.24354002 -53.75059134 16.8840376 -57.34375 14.08984375 C-58.16842773 13.45949219 -58.16842773 13.45949219 -59.00976562 12.81640625 C-60.35417168 11.78764336 -61.69326413 10.75194285 -63.03125 9.71484375 C-59.39262114 1.48289628 -51.87256794 -2.16971979 -43.86328125 -5.33984375 C-30.11809912 -9.92789075 -11.80112049 -8.74394616 0 0 Z M-40.40625 44.58984375 C-42.35103764 47.13302759 -42.95487411 48.50705653 -43.03125 51.71484375 C-41.829622 55.05269931 -40.62016808 57.16273305 -38.03125 59.58984375 C-32.70004876 61.58904421 -27.04476337 61.88620941 -21.6796875 59.80078125 C-17.25274119 57.23083114 -14.38636351 54.33086623 -12.03125 49.71484375 C-11.24054452 46.48445533 -11.24054452 46.48445533 -11.03125 43.71484375 C-21.17583204 39.13983617 -30.98016322 37.14819629 -40.40625 44.58984375 Z " fill="#2B2E7E" transform="translate(425.03125,526.28515625)"/>
<path d="M0 0 C9.03004739 7.88400199 12.00840803 19.47089338 13 31 C13.18222722 36.63554556 13.18222722 36.63554556 12 39 C-7.8 39 -27.6 39 -48 39 C-43.36479406 50.07563265 -43.36479406 50.07563265 -34.71484375 55.29296875 C-27.5764929 57.15202127 -21.11638683 56.93471762 -14.65625 53.21484375 C-11.61907116 50.98710173 -9.66799579 48.33599158 -8 45 C-3.37324343 46.3922459 0.64686231 48.29520984 4.875 50.625 C6.02742187 51.25664063 7.17984375 51.88828125 8.3671875 52.5390625 C9.23601562 53.02117188 10.10484375 53.50328125 11 54 C9.80765851 60.87889321 3.15153917 66.38024294 -2.04296875 70.68359375 C-12.65922758 77.82467005 -26.3852128 78.61067068 -38.65625 76.31640625 C-50.31518936 73.03392449 -58.73292639 66.13435628 -65.3203125 55.9609375 C-71.17843773 45.06916392 -71.67658235 32.03859157 -68.4375 20.25 C-64.80268845 9.76643825 -58.06369935 0.82492862 -48.22265625 -4.50390625 C-31.97335579 -12.15961693 -14.5191412 -10.64401513 0 0 Z M-43.37109375 16.59765625 C-44.88764043 18.73341576 -46 20.32993959 -46 23 C-33.79 23 -21.58 23 -9 23 C-13.16664572 14.11806128 -13.16664572 14.11806128 -21 10 C-29.90057319 8.64435714 -37.32757775 9.55549658 -43.37109375 16.59765625 Z " fill="#2B2E7E" transform="translate(736,528)"/>
<path d="M0 0 C9.03004739 7.88400199 12.00840803 19.47089338 13 31 C13.18222722 36.63554556 13.18222722 36.63554556 12 39 C-7.8 39 -27.6 39 -48 39 C-43.36479406 50.07563265 -43.36479406 50.07563265 -34.71484375 55.29296875 C-27.5764929 57.15202127 -21.11638683 56.93471762 -14.65625 53.21484375 C-11.61907116 50.98710173 -9.66799579 48.33599158 -8 45 C-3.37324343 46.3922459 0.64686231 48.29520984 4.875 50.625 C6.02742188 51.25664063 7.17984375 51.88828125 8.3671875 52.5390625 C9.23601562 53.02117188 10.10484375 53.50328125 11 54 C9.80765851 60.87889321 3.15153917 66.38024294 -2.04296875 70.68359375 C-12.65922758 77.82467005 -26.3852128 78.61067068 -38.65625 76.31640625 C-50.31518936 73.03392449 -58.73292639 66.13435628 -65.3203125 55.9609375 C-71.17843773 45.06916392 -71.67658235 32.03859157 -68.4375 20.25 C-64.80268845 9.76643825 -58.06369935 0.82492862 -48.22265625 -4.50390625 C-31.97335579 -12.15961693 -14.5191412 -10.64401513 0 0 Z M-43.37109375 16.59765625 C-44.88764043 18.73341576 -46 20.32993959 -46 23 C-33.79 23 -21.58 23 -9 23 C-13.16664572 14.11806128 -13.16664572 14.11806128 -21 10 C-29.90057319 8.64435714 -37.32757775 9.55549658 -43.37109375 16.59765625 Z " fill="#2B2E7E" transform="translate(242,528)"/>
<path d="M0 0 C8.27416644 7.43949176 12.41077457 18.38781915 13.24609375 29.27734375 C13.69444731 43.10456739 9.69415154 54.61552245 0.28125 64.7890625 C-8.74868713 73.3192512 -19.6695859 75.8921069 -31.76098633 75.84301758 C-43.53557012 75.49770986 -53.2990007 71.50463627 -61.96875 63.4765625 C-71.43170702 52.53501844 -73.78456695 39.52674328 -72.96875 25.4765625 C-71.18952698 13.8663784 -65.15106423 3.78659635 -55.96875 -3.5234375 C-37.99770959 -14.76964591 -16.52066424 -12.78384733 0 0 Z M-46.34375 18.0390625 C-50.48216563 24.12230733 -51.67775344 31.08544391 -50.34375 38.2890625 C-48.37976639 45.29435435 -44.34402924 49.87757184 -38.140625 53.5625 C-33.35031658 55.57856505 -27.63677521 55.19715734 -22.68359375 53.859375 C-17.23102404 51.48503829 -13.96607732 47.52742203 -10.96875 42.4765625 C-8.80499504 35.98529761 -8.67726529 27.30966657 -11.46875 20.9765625 C-14.49806338 15.92770686 -19.43763215 12.32026845 -24.96875 10.4765625 C-33.81946801 9.51760371 -40.46584183 11.12471158 -46.34375 18.0390625 Z " fill="#2B2E7E" transform="translate(1316.96875,529.5234375)"/>
<path d="M0 0 C8.27416644 7.43949176 12.41077457 18.38781915 13.24609375 29.27734375 C13.69444731 43.10456739 9.69415154 54.61552245 0.28125 64.7890625 C-8.74868713 73.3192512 -19.6695859 75.8921069 -31.76098633 75.84301758 C-43.53557012 75.49770986 -53.2990007 71.50463627 -61.96875 63.4765625 C-71.43170702 52.53501844 -73.78456695 39.52674328 -72.96875 25.4765625 C-71.18952698 13.8663784 -65.15106423 3.78659635 -55.96875 -3.5234375 C-37.99770959 -14.76964591 -16.52066424 -12.78384733 0 0 Z M-46.34375 18.0390625 C-50.48216563 24.12230733 -51.67775344 31.08544391 -50.34375 38.2890625 C-48.37976639 45.29435435 -44.34402924 49.87757184 -38.140625 53.5625 C-33.35031658 55.57856505 -27.63677521 55.19715734 -22.68359375 53.859375 C-17.23102404 51.48503829 -13.96607732 47.52742203 -10.96875 42.4765625 C-8.80499504 35.98529761 -8.67726529 27.30966657 -11.46875 20.9765625 C-14.49806338 15.92770686 -19.43763215 12.32026845 -24.96875 10.4765625 C-33.81946801 9.51760371 -40.46584183 11.12471158 -46.34375 18.0390625 Z " fill="#2B2E7E" transform="translate(983.96875,529.5234375)"/>
<path d="M0 0 C6.68524291 4.54545872 9.73336061 11.42268073 12 19 C13.09926904 25.80673212 13.12943792 32.49056353 13.09765625 39.375 C13.0962413 40.5400708 13.09482635 41.7051416 13.09336853 42.90551758 C13.08779916 46.6037052 13.07525231 50.30183087 13.0625 54 C13.05748104 56.51692621 13.05291883 59.03385337 13.04882812 61.55078125 C13.03869335 67.70056353 13.01911191 73.85021294 13 80 C5.41 80 -2.18 80 -10 80 C-10.03738281 76.24367188 -10.07476563 72.48734375 -10.11328125 68.6171875 C-10.15951172 64.97324854 -10.21074003 61.32941169 -10.26245117 57.68554688 C-10.29567514 55.15598775 -10.32371489 52.62635495 -10.34643555 50.09667969 C-10.38002704 46.45736333 -10.43234754 42.81872066 -10.48828125 39.1796875 C-10.49467117 38.05134491 -10.5010611 36.92300232 -10.50764465 35.76046753 C-10.61262574 30.13517975 -10.73835762 25.81193227 -14 21 C-17.77125287 17.5715883 -21.6767274 17.47864345 -26.5703125 17.66015625 C-30.32050361 18.18470067 -32.23821608 19.43089868 -35 22 C-39.05996806 27.38387069 -41.07515003 31.90780174 -41.20532227 38.67675781 C-41.22526749 39.59741028 -41.24521271 40.51806274 -41.26576233 41.46661377 C-41.29083107 42.94493683 -41.29083107 42.94493683 -41.31640625 44.453125 C-41.33718735 45.46848328 -41.35796844 46.48384155 -41.37937927 47.52996826 C-41.44470597 50.76991073 -41.50368137 54.00993348 -41.5625 57.25 C-41.60570126 59.44792493 -41.64931607 61.64584178 -41.69335938 63.84375 C-41.80114744 69.2290856 -41.90034673 74.61448312 -42 80 C-49.26 80 -56.52 80 -64 80 C-64 53.27 -64 26.54 -64 -1 C-57.07 -1 -50.14 -1 -43 -1 C-42.67 1.64 -42.34 4.28 -42 7 C-41.62230469 6.54109375 -41.24460937 6.0821875 -40.85546875 5.609375 C-30.4006037 -6.04522866 -13.50921828 -7.25254507 0 0 Z " fill="#2B2E7E" transform="translate(1405,523)"/>
<path d="M0 0 C7.26 0 14.52 0 22 0 C22.04898437 3.45597656 22.09796875 6.91195312 22.1484375 10.47265625 C22.2024982 13.83199266 22.25978576 17.19125969 22.31738281 20.55053711 C22.35558779 22.87926024 22.39045526 25.20804067 22.421875 27.53686523 C22.46770962 30.8906701 22.52567425 34.24408335 22.5859375 37.59765625 C22.59748871 38.63334244 22.60903992 39.66902863 22.62094116 40.73609924 C22.73183231 46.20812507 23.19702176 50.82588556 25 56 C25.33 56.99 25.66 57.98 26 59 C31.12787652 61.68560141 36.35184133 61.65618314 42 61 C47.16505492 58.65224776 49.88252247 55.18670412 52 50 C53.85963438 43.75303715 54.32597746 37.63696149 54.4140625 31.15234375 C54.43342865 30.25504044 54.4527948 29.35773712 54.4727478 28.4332428 C54.53194706 25.60142154 54.57868749 22.76955829 54.625 19.9375 C54.66323483 18.00323867 54.70228966 16.06899337 54.7421875 14.13476562 C54.83912362 9.42326626 54.91916358 4.71191234 55 0 C62.26 0 69.52 0 77 0 C77 26.73 77 53.46 77 81 C70.07 81 63.14 81 56 81 C55.505 76.545 55.505 76.545 55 72 C54.45472656 72.54269531 53.90945313 73.08539062 53.34765625 73.64453125 C45.89954414 80.71068889 40.36692915 83.06892458 30.125 83.4375 C22.6209243 83.23512471 15.8296759 82.16519856 9.90625 77.26953125 C2.97053504 69.90768126 -0.13573909 61.2183288 -0.11352539 51.19995117 C-0.11344986 50.05914597 -0.11337433 48.91834076 -0.11329651 47.7429657 C-0.10813522 46.52196671 -0.10297394 45.30096771 -0.09765625 44.04296875 C-0.0962413 42.78486893 -0.09482635 41.5267691 -0.09336853 40.23054504 C-0.08872573 36.89821471 -0.07975228 33.56595368 -0.06866455 30.23364258 C-0.05840503 26.82829383 -0.05386121 23.4229379 -0.04882812 20.01757812 C-0.03780829 13.34503055 -0.02054835 6.67252476 0 0 Z " fill="#2B2E7E" transform="translate(1047,522)"/>
<path d="M0 0 C4.58657299 3.76581782 8.55319601 7.64371047 9.85546875 13.5234375 C7.11085187 14.72495646 4.36094748 15.90981853 1.60546875 17.0859375 C0.43951172 17.59930664 0.43951172 17.59930664 -0.75 18.12304688 C-1.50410156 18.44208984 -2.25820312 18.76113281 -3.03515625 19.08984375 C-3.72641602 19.38834229 -4.41767578 19.68684082 -5.12988281 19.99438477 C-7.5622234 20.63312471 -8.81555244 20.43882376 -11.14453125 19.5234375 C-11.90765625 18.7190625 -12.67078125 17.9146875 -13.45703125 17.0859375 C-17.05742467 13.65300424 -20.24653746 12.56685314 -25.23046875 12.4921875 C-28.80459768 12.75792199 -30.86553474 13.29326538 -33.64453125 15.5859375 C-34.38703125 16.545 -34.38703125 16.545 -35.14453125 17.5234375 C-34.54593048 19.5181042 -34.54593048 19.5181042 -33.14453125 21.5234375 C-30.53907319 22.74976384 -30.53907319 22.74976384 -27.39453125 23.5234375 C-26.23050781 23.8534375 -25.06648438 24.1834375 -23.8671875 24.5234375 C-22.63871094 24.8534375 -21.41023438 25.1834375 -20.14453125 25.5234375 C1.95648754 31.5105918 1.95648754 31.5105918 8.85546875 41.5234375 C11.70768742 47.32358688 11.67892269 53.2004876 10.85546875 59.5234375 C7.76204992 67.84837346 2.10707951 72.98105408 -5.7265625 76.7734375 C-16.25198908 80.92025399 -29.28897585 81.38533512 -40.00390625 77.50390625 C-48.58134286 73.57518985 -55.36991174 67.73211027 -60.14453125 59.5234375 C-60.4992669 58.195638 -60.83537777 56.86258387 -61.14453125 55.5234375 C-58.02198182 54.18431165 -54.89610767 52.85313092 -51.76953125 51.5234375 C-50.88007812 51.141875 -49.990625 50.7603125 -49.07421875 50.3671875 C-48.2234375 50.00625 -47.37265625 49.6453125 -46.49609375 49.2734375 C-45.71057129 48.93828125 -44.92504883 48.603125 -44.11572266 48.2578125 C-42.14453125 47.5234375 -42.14453125 47.5234375 -40.14453125 47.5234375 C-39.54640625 48.4309375 -38.94828125 49.3384375 -38.33203125 50.2734375 C-35.81360523 54.01509901 -33.1828329 56.50428667 -29.14453125 58.5234375 C-27.18903869 58.64601211 -25.22882507 58.69896138 -23.26953125 58.7109375 C-21.69558594 58.73220703 -21.69558594 58.73220703 -20.08984375 58.75390625 C-17.17746887 58.52601485 -15.54296827 58.15594009 -13.14453125 56.5234375 C-12.06428467 54.12233533 -12.06428467 54.12233533 -12.14453125 51.5234375 C-16.37246635 46.32276066 -23.91200349 45.2539958 -30.14794922 43.78735352 C-41.10634457 41.19229119 -49.42431843 37.97373677 -56.14453125 28.5234375 C-58.10141956 22.65277258 -58.17498527 15.2711397 -56.53125 9.29296875 C-52.84614905 2.19874358 -46.45016654 -2.34336173 -39.08203125 -4.9140625 C-26.04170439 -8.41968919 -11.41082379 -7.76406567 0 0 Z " fill="#2B2E7E" transform="translate(1489.14453125,525.4765625)"/>
<path d="M0 0 C4.58657299 3.76581782 8.55319601 7.64371047 9.85546875 13.5234375 C7.11085187 14.72495646 4.36094748 15.90981853 1.60546875 17.0859375 C0.43951172 17.59930664 0.43951172 17.59930664 -0.75 18.12304688 C-1.50410156 18.44208984 -2.25820313 18.76113281 -3.03515625 19.08984375 C-3.72641602 19.38834229 -4.41767578 19.68684082 -5.12988281 19.99438477 C-7.5622234 20.63312471 -8.81555244 20.43882376 -11.14453125 19.5234375 C-11.90765625 18.7190625 -12.67078125 17.9146875 -13.45703125 17.0859375 C-17.05742467 13.65300424 -20.24653746 12.56685314 -25.23046875 12.4921875 C-28.80459768 12.75792199 -30.86553474 13.29326538 -33.64453125 15.5859375 C-34.38703125 16.545 -34.38703125 16.545 -35.14453125 17.5234375 C-34.54593048 19.5181042 -34.54593048 19.5181042 -33.14453125 21.5234375 C-30.53907319 22.74976384 -30.53907319 22.74976384 -27.39453125 23.5234375 C-26.23050781 23.8534375 -25.06648437 24.1834375 -23.8671875 24.5234375 C-22.63871094 24.8534375 -21.41023437 25.1834375 -20.14453125 25.5234375 C1.95648754 31.5105918 1.95648754 31.5105918 8.85546875 41.5234375 C11.70768742 47.32358688 11.67892269 53.2004876 10.85546875 59.5234375 C7.76204992 67.84837346 2.10707951 72.98105408 -5.7265625 76.7734375 C-16.25198908 80.92025399 -29.28897585 81.38533512 -40.00390625 77.50390625 C-48.58134286 73.57518985 -55.36991174 67.73211027 -60.14453125 59.5234375 C-60.4992669 58.195638 -60.83537777 56.86258387 -61.14453125 55.5234375 C-58.02198182 54.18431165 -54.89610767 52.85313092 -51.76953125 51.5234375 C-50.88007812 51.141875 -49.990625 50.7603125 -49.07421875 50.3671875 C-48.2234375 50.00625 -47.37265625 49.6453125 -46.49609375 49.2734375 C-45.71057129 48.93828125 -44.92504883 48.603125 -44.11572266 48.2578125 C-42.14453125 47.5234375 -42.14453125 47.5234375 -40.14453125 47.5234375 C-39.54640625 48.4309375 -38.94828125 49.3384375 -38.33203125 50.2734375 C-35.81360523 54.01509901 -33.1828329 56.50428667 -29.14453125 58.5234375 C-27.18903869 58.64601211 -25.22882507 58.69896138 -23.26953125 58.7109375 C-21.69558594 58.73220703 -21.69558594 58.73220703 -20.08984375 58.75390625 C-17.17746887 58.52601485 -15.54296827 58.15594009 -13.14453125 56.5234375 C-12.06428467 54.12233533 -12.06428467 54.12233533 -12.14453125 51.5234375 C-16.37246635 46.32276066 -23.91200349 45.2539958 -30.14794922 43.78735352 C-41.10634457 41.19229119 -49.42431843 37.97373677 -56.14453125 28.5234375 C-58.10141956 22.65277258 -58.17498527 15.2711397 -56.53125 9.29296875 C-52.84614905 2.19874358 -46.45016654 -2.34336173 -39.08203125 -4.9140625 C-26.04170439 -8.41968919 -11.41082379 -7.76406567 0 0 Z " fill="#2B2E7E" transform="translate(891.14453125,525.4765625)"/>
<path d="M0 0 C23.21390779 -2.38197854 23.21390779 -2.38197854 29.21191406 1.39160156 C32.50245452 4.81806796 34.49182227 8.81051721 36.2578125 13.18505859 C37.58693252 16.43528168 38.80036339 19.40018169 42 21 C42.26039063 20.34644531 42.52078125 19.69289063 42.7890625 19.01953125 C43.18867187 18.02308594 43.58828125 17.02664063 44 16 C44.32242676 15.05326416 44.32242676 15.05326416 44.65136719 14.08740234 C46.64005085 8.56198126 48.95823027 3.30095267 54 0 C63.10441337 -2.08515972 72.79279503 -0.9693757 82 0 C77.71832069 6.86143924 73.2865954 13.54393663 68.5 20.0625 C67.37054661 21.61288281 66.24163648 23.16366153 65.11328125 24.71484375 C64.57912598 25.44815918 64.0449707 26.18147461 63.49462891 26.93701172 C60.6089006 30.92008982 57.79596246 34.95347979 55 39 C58.97326112 45.40061178 63.10076136 51.67266764 67.375 57.875 C68.07326904 58.88844482 68.07326904 58.88844482 68.78564453 59.92236328 C71.0775908 63.24034145 73.38272484 66.54835842 75.70703125 69.84375 C76.1261377 70.44074707 76.54524414 71.03774414 76.97705078 71.65283203 C78.1201119 73.27912351 79.26886493 74.90141004 80.41796875 76.5234375 C82 79 82 79 82 81 C58.83043467 82.78978384 58.83043467 82.78978384 52.73828125 78.9375 C50.71193502 76.04389402 49.36355706 73.25494266 48 70 C46.69788993 67.91764715 45.36537279 65.85393116 44 63.8125 C42.99631486 62.21063645 41.99487733 60.60734868 41 59 C38.40697372 61.90116617 36.6336547 64.65837203 35.1171875 68.20703125 C32.8015745 73.18077834 30.57347883 77.76745204 26 81 C17.57297129 83.16029312 8.54219877 82.04173156 0 81 C0.61743159 77.83582815 1.67455121 75.71777087 3.51953125 73.0859375 C4.04200439 72.3328833 4.56447754 71.5798291 5.1027832 70.80395508 C5.66698975 70.0023999 6.23119629 69.20084473 6.8125 68.375 C7.99058419 66.67908023 9.16764087 64.9824463 10.34375 63.28515625 C11.24867188 61.98215576 11.24867188 61.98215576 12.171875 60.65283203 C15.0996041 56.40434053 17.95824336 52.11056259 20.8125 47.8125 C21.33368408 47.02858887 21.85486816 46.24467773 22.3918457 45.43701172 C23.59559904 43.62536192 24.79796885 41.81279293 26 40 C24.64901223 37.16438856 23.12978103 34.60049475 21.34765625 32.015625 C20.82324951 31.25233887 20.29884277 30.48905273 19.75854492 29.70263672 C18.91900269 28.48858154 18.91900269 28.48858154 18.0625 27.25 C17.48927002 26.4161377 16.91604004 25.58227539 16.32543945 24.72314453 C13.45677079 20.55204571 10.57720877 16.38852857 7.6953125 12.2265625 C7.18734131 11.49147461 6.67937012 10.75638672 6.15600586 9.99902344 C5.19032552 8.6022788 4.2224498 7.207049 3.25219727 5.81347656 C0 1.11159271 0 1.11159271 0 0 Z " fill="#2B2E7E" transform="translate(582,522)"/>
<path d="M0 0 C7.59 0 15.18 0 23 0 C23 8.25 23 16.5 23 25 C29.27 25 35.54 25 42 25 C42 31.27 42 37.54 42 44 C35.73 44 29.46 44 23 44 C23.07411053 48.8938503 23.15703287 53.7859091 23.26245117 58.67895508 C23.29563655 60.34227108 23.32368834 62.00569796 23.34643555 63.66918945 C23.38009999 66.06509499 23.4324194 68.45999035 23.48828125 70.85546875 C23.49467117 71.5952446 23.5010611 72.33502045 23.50764465 73.09721375 C23.63295576 77.53091913 24.20254525 80.50370215 27 84 C32.21848752 85.77902983 34.31379085 84.62463119 40 83 C42.97 92.9 42.97 92.9 46 103 C35.76528283 107.38630736 26.11121379 108.77410328 15.35546875 105.09765625 C8.58757922 101.94379728 4.52658617 97.22085285 1.69140625 90.40625 C-0.03231628 84.40730604 -0.13893121 78.40596753 -0.09765625 72.22265625 C-0.0962413 71.41130722 -0.09482635 70.59995819 -0.09336853 69.76402283 C-0.08781357 67.19680953 -0.07526967 64.62968652 -0.0625 62.0625 C-0.05747917 60.31185023 -0.05291729 58.56119907 -0.04882812 56.81054688 C-0.03785893 52.5403303 -0.02062582 48.27018041 0 44 C-4.62 44 -9.24 44 -14 44 C-14 37.73 -14 31.46 -14 25 C-9.38 25 -4.76 25 0 25 C0 16.75 0 8.5 0 0 Z " fill="#2B2E7E" transform="translate(1150,497)"/>
<path d="M0 0 C7.26 0 14.52 0 22 0 C22 38.94 22 77.88 22 118 C14.74 118 7.48 118 0 118 C0 79.06 0 40.12 0 0 Z " fill="#2B2E7E" transform="translate(1587,485)"/>
<path d="M0 0 C7.26 0 14.52 0 22 0 C22 38.94 22 77.88 22 118 C14.74 118 7.48 118 0 118 C0 79.06 0 40.12 0 0 Z " fill="#2B2E7E" transform="translate(1548,485)"/>
<path d="M0 0 C7.26 0 14.52 0 22 0 C22 38.94 22 77.88 22 118 C14.74 118 7.48 118 0 118 C0 79.06 0 40.12 0 0 Z " fill="#2B2E7E" transform="translate(1008,485)"/>
<path d="M0 0 C7.26 0 14.52 0 22 0 C22 38.94 22 77.88 22 118 C14.74 118 7.48 118 0 118 C0 79.06 0 40.12 0 0 Z " fill="#2B2E7E" transform="translate(761,485)"/>
<path d="M0 0 C7.26 0 14.52 0 22 0 C22 26.73 22 53.46 22 81 C14.74 81 7.48 81 0 81 C0 54.27 0 27.54 0 0 Z " fill="#2B2E7E" transform="translate(1209,522)"/>
<path d="M0 0 C7.26 0 14.52 0 22 0 C22 26.73 22 53.46 22 81 C14.74 81 7.48 81 0 81 C0 54.27 0 27.54 0 0 Z " fill="#2B2E7E" transform="translate(549,522)"/>
<path d="M0 0 C4.91185683 3.40051626 7.27668684 6.25562281 9 12 C9.94381454 18.46687744 8.84314026 23.68216639 5 29 C0.1711728 34.04831935 -3.60696675 36.13928442 -10.6875 36.375 C-16.75276274 36.30174803 -20.56902972 35.17514059 -25 31 C-29.27737562 26.56575241 -30.34665258 22.48835594 -30.5625 16.375 C-30.25821227 9.25302223 -28.22604883 6.1292641 -23.125 1.25 C-15.52742544 -4.22025368 -8.22310969 -4.33582147 0 0 Z " fill="#231F20" transform="translate(1446,13)"/>
<path d="M0 0 C4.01125177 2.04209181 6.63010473 4.1946253 9 8 C9.87570205 13.22265547 9.61426036 17.7259785 7.3125 22.5 C3.6611262 26.44743114 1.01198344 28.15397456 -4.375 28.4375 C-9.28329591 28.25752915 -12.06021395 26.91544167 -16 24 C-19.43626263 20.23119582 -19.51209617 16.34107394 -19.3515625 11.4375 C-18.67904883 6.77473854 -16.30117669 4.14809708 -12.875 1.125 C-8.55972739 -0.56358494 -4.57002039 -0.66646131 0 0 Z " fill="#2B2E7E" transform="translate(1225,483)"/>
<path d="M0 0 C4.01125177 2.04209181 6.63010473 4.1946253 9 8 C9.87570205 13.22265547 9.61426036 17.7259785 7.3125 22.5 C3.6611262 26.44743114 1.01198344 28.15397456 -4.375 28.4375 C-9.28329591 28.25752915 -12.06021395 26.91544167 -16 24 C-19.43626263 20.23119582 -19.51209617 16.34107394 -19.3515625 11.4375 C-18.67904883 6.77473854 -16.30117669 4.14809708 -12.875 1.125 C-8.55972739 -0.56358494 -4.57002039 -0.66646131 0 0 Z " fill="#2B2E7E" transform="translate(565,483)"/>
</svg>
